<?xml version="1.0" encoding="utf-8"?>
<!-- Generator: Adobe Illustrator 22.0.1, SVG Export Plug-In . SVG Version: 6.00 Build 0)  -->
<svg version="1.1" id="Слой_1" xmlns="http://www.w3.org/2000/svg" xmlns:xlink="http://www.w3.org/1999/xlink" x="0px" y="0px"
	 viewBox="0 0 93.3 82.7" style="enable-background:new 0 0 93.3 82.7;" xml:space="preserve">
<style type="text/css">
	.st0{fill:#385656;}
	.st1{fill:#18DBF8;}
	.st2{fill:#3F7EFF;}
	.st3{fill:#1462FC;}
	.st4{fill:#00C2F0;}
	.st5{fill:#EDE9E8;}
	.st6{fill:#DFD7D5;}
</style>
<path class="st0" d="M67.9,71.8H44V10.9h23.9v4.7H49.3v51.6h18.6V71.8z"/>
<path class="st0" d="M33.3,39L28,41.3l5.3,2.3h34.6V39H33.3z"/>
<g>
	<path class="st1" d="M65.3,57.7v23.6h26.4V57.7H65.3z"/>
	<path class="st1" d="M65.3,29.6v23.4h26.4V29.6H65.3z"/>
	<path class="st1" d="M65.3,1.3v23.6h26.4V1.3H65.3z"/>
</g>
<path class="st2" d="M17.5,24.9C8.8,24.9,1.7,31.3,1.7,39v4.7h31.6V39C33.3,31.3,26.2,24.9,17.5,24.9z"/>
<path class="st3" d="M33.3,39v4.7H17.5V24.9C26.2,24.9,33.3,31.3,33.3,39z"/>
<path class="st2" d="M17.5,6.2c-5.8,0-10.5,4.2-10.5,9.4s4.7,9.4,10.5,9.4S28,20.7,28,15.6S23.3,6.2,17.5,6.2z"/>
<path class="st3" d="M17.5,24.9V6.2c5.8,0,10.5,4.2,10.5,9.4S23.3,24.9,17.5,24.9z"/>
<path class="st4" d="M78.5,1.3h13.2v23.6H78.5V1.3z"/>
<path class="st4" d="M78.5,29.6h13.2v23.4H78.5V29.6z"/>
<path class="st4" d="M78.5,57.7h13.2v23.6H78.5V57.7z"/>
<path class="st5" d="M88.2,64.1l-9.8,8.7l-2.6,2.3l-7.1-6.4l3.7-3.3l3.4,3l2.6-2.3l6.1-5.3L88.2,64.1z"/>
<path class="st6" d="M84.5,60.8l3.7,3.3l-9.8,8.7v-6.7L84.5,60.8z"/>
<path class="st5" d="M88.2,35.9l-9.8,8.7L75.8,47l-7.1-6.4l3.7-3.3l3.4,3l2.6-2.3l6.1-5.3L88.2,35.9z"/>
<path class="st6" d="M84.5,32.7l3.7,3.3l-9.8,8.7V38L84.5,32.7z"/>
<path class="st5" d="M88.2,7.8l-9.8,8.7l-2.6,2.3l-7.1-6.4l3.7-3.3l3.4,3l2.6-2.3l6.1-5.3L88.2,7.8z"/>
<path class="st6" d="M88.2,7.8l-9.8,8.7V9.9l6.1-5.3L88.2,7.8z"/>
</svg>
