<?xml version="1.0" encoding="utf-8"?>
<!-- Generator: Adobe Illustrator 22.0.1, SVG Export Plug-In . SVG Version: 6.00 Build 0)  -->
<svg version="1.1" id="Capa_1" xmlns="http://www.w3.org/2000/svg" xmlns:xlink="http://www.w3.org/1999/xlink" x="0px" y="0px"
	 viewBox="0 0 90.7 81.8" style="enable-background:new 0 0 90.7 81.8;" xml:space="preserve">
<style type="text/css">
	.st0{fill:#1462FC;}
	.st1{fill:#3F7EFF;}
</style>
<g>
	<g>
		<polygon class="st0" points="55.1,29.7 45.7,12.6 36.2,29.7 14.9,32.5 30.3,45.8 26.7,64.5 45.7,55.7 64.6,64.5 61,45.8 
			76.4,32.5 		"/>
		<path class="st1" d="M45.3,1.2c-24.8,0-45,17.9-45,40s20.2,40,45,40s45-17.9,45-40S70.2,1.2,45.3,1.2z M45.3,77.4
			c-22.5,0-40.8-16.3-40.8-36.3S22.8,4.9,45.3,4.9s40.8,16.3,40.8,36.3S67.8,77.4,45.3,77.4z"/>
	</g>
</g>
</svg>
