<?xml version="1.0" encoding="utf-8"?>
<!-- Generator: Adobe Illustrator 22.0.1, SVG Export Plug-In . SVG Version: 6.00 Build 0)  -->
<svg version="1.1" id="Capa_1" xmlns="http://www.w3.org/2000/svg" xmlns:xlink="http://www.w3.org/1999/xlink" x="0px" y="0px"
	 viewBox="0 0 92 81.8" style="enable-background:new 0 0 92 81.8;" xml:space="preserve">
<style type="text/css">
	.st0{fill:#18DBF8;}
	.st1{fill:#00C2F0;}
	.st2{fill:#E1E4FB;}
	.st3{fill:#C5C9F7;}
	.st4{fill:#A8AFF1;}
	.st5{fill:#495A79;}
	.st6{fill:#42516D;}
	.st7{fill:#3F7EFF;}
	.st8{fill:#1462FC;}
</style>
<path class="st0" d="M82.9,34H9.1C4.7,34,1,37.1,1,41v33c0,3.9,3.7,7,8.1,7h73.8c4.4,0,8.1-3.1,8.1-7V41C91,37.1,87.3,34,82.9,34z"
	/>
<path class="st1" d="M91,41v33c0,3.9-3.7,7-8.1,7H46V34h36.9C87.3,34,91,37.1,91,41z"/>
<path class="st2" d="M77.6,43.3H14.4c-1.5,0-2.6,1-2.6,2.3v23.6c0,1.3,1.2,2.3,2.6,2.3h63.3c1.5,0,2.6-1,2.6-2.3V45.7
	C80.3,44.4,79.1,43.3,77.6,43.3z"/>
<g>
	<path class="st3" d="M80.3,45.7v23.6c0,1.3-1.2,2.3-2.6,2.3H46V43.3h31.6C79.1,43.3,80.3,44.4,80.3,45.7z"/>
	<path class="st3" d="M17,48v18.9h58V48H17z"/>
</g>
<rect x="46" y="48" class="st4" width="29" height="18.9"/>
<path class="st2" d="M35.5,71.6c-1.5,0-2.6-1-2.6-2.3V45.7c0-1.3,1.2-2.3,2.6-2.3s2.6,1,2.6,2.3v23.6C38.1,70.6,36.9,71.6,35.5,71.6
	z"/>
<path class="st3" d="M56.5,71.6c-1.5,0-2.6-1-2.6-2.3V45.7c0-1.3,1.2-2.3,2.6-2.3s2.6,1,2.6,2.3v23.6C59.2,70.6,58,71.6,56.5,71.6z"
	/>
<path class="st5" d="M24.9,62.3c-1.5,0-2.6-1-2.6-2.3v-4.8c0-1.3,1.2-2.3,2.6-2.3s2.6,1,2.6,2.3v4.8C27.5,61.2,26.4,62.3,24.9,62.3z
	"/>
<path class="st6" d="M67.1,62.3c-1.5,0-2.6-1-2.6-2.3v-4.8c0-1.3,1.2-2.3,2.6-2.3s2.6,1,2.6,2.3v4.8C69.7,61.2,68.6,62.3,67.1,62.3z
	"/>
<path class="st7" d="M61.1,10.7c-0.3-0.8-1.1-1.5-2.1-1.6L51.9,8l-3.4-5.8C48,1.4,46.9,1,46,1c-0.9,0-1.8,0.4-2.3,1.2L40.3,8
	l-7.2,1.1c-0.9,0.1-1.7,0.8-2.1,1.6c-0.3,0.8-0.1,1.7,0.6,2.3l5.1,4.7l-1.1,6.5c-0.1,0.8,0.3,1.7,1.1,2.3c0.8,0.5,1.8,0.6,2.7,0.2
	l6.5-2.8l0.1,0l6.6,2.9c0.8,0.4,1.9,0.3,2.7-0.2c0.8-0.5,1.2-1.4,1.1-2.3l-1.1-6.5l5.1-4.7C61.2,12.4,61.5,11.5,61.1,10.7z"/>
<path class="st8" d="M60.5,13l-5.1,4.7l1.1,6.5c0.2,0.8-0.3,1.7-1.1,2.3c-0.8,0.5-1.8,0.6-2.7,0.2l-6.6-2.9l-0.1,0V1
	c0.9,0,2,0.4,2.4,1.2L51.9,8l7.2,1.1c0.9,0.1,1.7,0.8,2.1,1.6S61.2,12.4,60.5,13z"/>
<path class="st7" d="M90.4,16.1c-0.3-0.8-0.9-1.4-1.8-1.5L83,13.3l-3-4.2c-0.5-0.7-1.4-1-2.3-1c-0.8,0-1.7,0.4-2.2,1l-3,4.2L67,14.6
	c-0.8,0.2-1.6,0.8-1.8,1.5c-0.3,0.8-0.1,1.6,0.5,2.2l3.6,3.8l-0.4,5c-0.1,0.8,0.4,1.6,1.1,2.1s1.7,0.6,2.5,0.3l5.1-1.8l0.1,0
	l5.2,1.8c0.8,0.3,2,0.2,2.7-0.3c0.7-0.5,1.1-1.3,1.1-2.1l-0.4-5l3.6-3.8C90.5,17.7,90.7,16.9,90.4,16.1z"/>
<path class="st8" d="M89.9,18.3l-3.6,3.8l0.4,5c0.1,0.8-0.4,1.6-1.1,2.1c-0.7,0.5-1.9,0.6-2.7,0.3l-5.2-1.8l-0.1,0V8
	c0.9,0,1.8,0.3,2.3,1l3,4.2l5.6,1.3c0.9,0.2,1.6,0.8,1.8,1.5C90.7,16.9,90.5,17.7,89.9,18.3z"/>
<path class="st7" d="M27,16.1c-0.3-0.8-0.9-1.4-1.8-1.5l-5.4-1.3l-3-4.2c-0.5-0.7-1.4-1-2.3-1c-0.8,0-1.7,0.4-2.2,1l-3,4.2l-5.6,1.3
	c-0.8,0.2-1.6,0.8-1.8,1.5c-0.3,0.8-0.1,1.6,0.5,2.2L6,22.2l-0.4,5c-0.1,0.8,0.4,1.6,1.1,2.1s1.7,0.6,2.5,0.3l5.1-1.8l0.1,0l5.2,1.8
	c0.8,0.3,1.8,0.2,2.5-0.3c0.7-0.5,1.1-1.3,1.1-2.1l-0.4-5l3.6-3.8C27.1,17.7,27.3,16.9,27,16.1z"/>
<path class="st8" d="M26.5,18.3l-3.6,3.8l0.4,5c0.1,0.8-0.4,1.6-1.1,2.1c-0.7,0.5-1.7,0.6-2.5,0.3l-5.2-1.8l-0.1,0V8
	c0.9,0,1.8,0.3,2.3,1l3,4.2l5.4,1.3c0.9,0.2,1.6,0.8,1.8,1.5C27.3,16.9,27.1,17.7,26.5,18.3z"/>
<path class="st5" d="M48.6,55.1v4.8c0,1.3-1.2,2.3-2.6,2.3s-2.6-1-2.6-2.3v-4.8c0-1.3,1.2-2.3,2.6-2.3S48.6,53.8,48.6,55.1z"/>
<path class="st6" d="M48.6,55.1v4.8c0,1.3-1.2,2.3-2.6,2.3v-9.5C47.5,52.7,48.6,53.8,48.6,55.1z"/>
</svg>
