<?xml version="1.0" encoding="utf-8"?>
<!-- Generator: Adobe Illustrator 22.0.1, SVG Export Plug-In . SVG Version: 6.00 Build 0)  -->
<svg version="1.1" id="Layer_1" xmlns="http://www.w3.org/2000/svg" xmlns:xlink="http://www.w3.org/1999/xlink" x="0px" y="0px"
	 viewBox="0 0 92 82.5" style="enable-background:new 0 0 92 82.5;" xml:space="preserve">
<style type="text/css">
	.st0{fill:#00C2F0;}
	.st1{fill:#3F7EFF;}
	.st2{fill:#1462FC;}
	.st3{fill:#18DBF8;}
	.st4{fill:#385656;}
	.st5{fill:#BCDEFF;}
</style>
<g>
	<g>
		<g>
			<path class="st0" d="M59.3,14.4c-1.2,0-2.1-0.6-2.1-1.4V7.4c0-0.8,0.9-1.4,2.1-1.4c1.2,0,2.1,0.6,2.1,1.4V13
				C61.4,13.8,60.5,14.4,59.3,14.4z"/>
		</g>
	</g>
	<g>
		<g>
			<path class="st0" d="M32.6,14.4c-1.2,0-2.1-0.6-2.1-1.4V7.4c0-0.8,0.9-1.4,2.1-1.4s2.1,0.6,2.1,1.4V13
				C34.7,13.8,33.8,14.4,32.6,14.4z"/>
		</g>
	</g>
	<g>
		<path class="st1" d="M86.8,48.1H5.2c-0.8,0-1.4,0.6-1.4,1.4v23.9c0,3.9,3.1,7,7,7h70.3c3.9,0,7-3.1,7-7V49.5
			C88.2,48.7,87.6,48.1,86.8,48.1z"/>
	</g>
	<g>
		<path class="st2" d="M84,13H8c-3.9,0-7,3.1-7,7v24.4c0,2.8,1.7,5.4,4.3,6.5c11.6,4.9,23.8,7.7,36.5,8.2h8.4c0,0,0,0,0.1,0
			c12.6-0.5,24.8-3.3,36.4-8.2c2.6-1.1,4.3-3.7,4.3-6.5V20C91,16.1,87.9,13,84,13z"/>
	</g>
	<g>
		<path class="st3" d="M62.9,43.9c0-3.1-2.5-5.6-5.6-5.6H34.8c-3.1,0-5.6,2.5-5.6,5.6v13.9c4.2,0.7,8.4,1.1,12.7,1.3h8.4
			c0,0,0,0,0.1,0c4.2-0.2,8.4-0.6,12.6-1.3V43.9z"/>
	</g>
	<g>
		<path class="st4" d="M47.4,63.5h-2.8c-1.5,0-2.8-1.3-2.8-2.8v-5.6c0-1.5,1.3-2.8,2.8-2.8h2.8c1.5,0,2.8,1.3,2.8,2.8v5.6
			C50.2,62.3,49,63.5,47.4,63.5z"/>
	</g>
	<g>
		<path class="st5" d="M61.5,8c-0.3,0-0.5,0-0.8-0.1C56.4,6.7,51.4,6,46,6S35.6,6.7,31.3,7.9c-1.5,0.5-3.1-0.4-3.5-1.9
			c-0.4-1.5,0.4-3.1,1.9-3.5C34.5,1.1,40.1,0.4,46,0.4s11.5,0.8,16.3,2.2c1.5,0.4,2.3,2,1.9,3.5C63.8,7.3,62.7,8,61.5,8z"/>
	</g>
	<g>
		<path class="st4" d="M48.8,52.3h-5.6c-0.8,0-1.4,0.6-1.4,1.4v2.8c0,1.5,1.3,2.8,2.8,2.8h2.8c1.5,0,2.8-1.3,2.8-2.8v-2.8
			C50.2,52.9,49.6,52.3,48.8,52.3z"/>
	</g>
</g>
</svg>
