<?xml version="1.0" encoding="utf-8"?>
<!-- Generator: Adobe Illustrator 22.0.1, SVG Export Plug-In . SVG Version: 6.00 Build 0)  -->
<svg version="1.1" id="Слой_1" xmlns="http://www.w3.org/2000/svg" xmlns:xlink="http://www.w3.org/1999/xlink" x="0px" y="0px"
	 viewBox="0 0 90.1 70.5" style="enable-background:new 0 0 90.1 70.5;" xml:space="preserve">
<style type="text/css">
	.st0{fill:#1562FC;}
	.st1{fill:#3F7EFF;}
	.st2{fill:#02DAEF;}
	.st3{fill:none;}
</style>
<g>
	<path class="st0" d="M21.2,1.8V69H9V33c0-5.2-0.1-8.3-0.3-9.4c-0.2-1-0.7-1.8-1.5-2.4c-0.8-0.6-2.6-0.7-5.4-0.7H0.5v-7.9
		C6.4,10.9,10.9,7.4,14,1.8H21.2z"/>
	<path class="st1" d="M55.2,19.7H43c0-3.1,0-5.1-0.1-6c-0.1-0.7-0.3-1.5-0.7-2.1s-1-0.9-1.8-0.9c-0.6,0-1.1,0.3-1.5,0.7
		c-0.4,0.6-0.6,1.2-0.7,2.1c-0.1,0.9-0.1,2.5-0.1,5.1v10.7c0.6-1.8,1.5-3.1,2.7-4s2.7-1.3,4.5-1.3c2.2,0,4.2,0.9,5.9,2.5
		s2.8,3.7,3.3,6c0.5,2.4,0.7,5.5,0.7,9.4v5.4c0,4.8-0.1,8.2-0.4,10.6c-0.3,2.2-1,4.5-2.1,6.4c-1.1,1.9-2.7,3.4-4.7,4.6
		c-2,1-4.3,1.6-6.9,1.6c-3.3,0-6-0.6-8.1-1.9c-2.1-1.2-3.7-3-4.8-5.4c-1.1-2.4-1.8-4.8-2-7.3c-0.2-2.5-0.3-7.7-0.3-15.2v-9.2
		c0-8,0.1-13.4,0.3-16.1s0.9-5.2,2.1-7.6s2.9-4.2,5-5.4c2.1-1.3,4.6-1.9,7.3-1.9c3.4,0,6.2,0.7,8.4,2.2c2.2,1.5,3.8,3.7,4.7,6.4
		C54.7,12,55.2,15.5,55.2,19.7z M43,40.7c0-2.4-0.2-4-0.6-4.9c-0.4-0.9-1-1.3-1.9-1.3c-0.8,0-1.5,0.4-1.9,1.3
		c-0.4,0.9-0.6,2.5-0.6,4.9v12.2c0,3,0.2,4.9,0.6,5.8c0.4,0.9,1,1.3,1.9,1.3c0.5,0,1.1-0.3,1.6-1s0.8-2.7,0.8-5.7V40.7H43z"/>
	<path class="st2" d="M59.1,30.4h10.8V15.5h7.4v14.9h10.9v10.1H77.3v14.9h-7.4V40.6H59.1V30.4z"/>
</g>
<rect x="-203.2" y="-47.9" class="st3" width="2.7" height="0.2"/>
</svg>
