<?xml version="1.0" encoding="utf-8"?>
<!-- Generator: Adobe Illustrator 22.0.1, SVG Export Plug-In . SVG Version: 6.00 Build 0)  -->
<svg version="1.1" id="Слой_1" xmlns="http://www.w3.org/2000/svg" xmlns:xlink="http://www.w3.org/1999/xlink" x="0px" y="0px"
	 viewBox="0 0 90.1 70.5" style="enable-background:new 0 0 90.1 70.5;" xml:space="preserve">
<style type="text/css">
	.st0{fill:none;}
	.st1{fill:#1562FC;}
	.st2{fill:#3F7EFF;}
	.st3{fill:#02DAEF;}
</style>
<rect x="-203.2" y="-47.9" class="st0" width="2.7" height="0.2"/>
<g>
	<path class="st1" d="M23.6,0.3v70H11.1V32.7c0-5.4-0.1-8.7-0.3-9.8c-0.2-1.1-0.7-1.9-1.5-2.5c-0.8-0.6-2.7-0.8-5.6-0.8H2.5v-8.2
		c6-1.8,10.6-5.6,13.7-11.2H23.6z"/>
	<path class="st2" d="M50.7,0.3V46h3.1v11.9h-3.1v12.3h-11V57.9H26.5V46l9.5-45.7H50.7z M39.7,46V16.2L34.8,46H39.7z"/>
	<path class="st3" d="M59.7,30h11.1V14.5h7.5V30h11.1v10.5H78.3v15.5h-7.5V40.6H59.7V30z"/>
</g>
</svg>
