<?xml version="1.0" encoding="utf-8"?>
<!-- Generator: Adobe Illustrator 22.0.1, SVG Export Plug-In . SVG Version: 6.00 Build 0)  -->
<svg version="1.1" id="Capa_1" xmlns="http://www.w3.org/2000/svg" xmlns:xlink="http://www.w3.org/1999/xlink" x="0px" y="0px"
	 viewBox="0 0 98.5 77" style="enable-background:new 0 0 98.5 77;" xml:space="preserve">
<style type="text/css">
	.st0{fill:#3B5757;}
	.st1{fill:#1C62FB;}
	.st2{fill:#417DFE;}
	.st3{fill:#76E1F7;}
	.st4{fill:#17C5EC;}
</style>
<g>
	<polygon class="st0" points="95.9,74.3 90.3,58.9 87.7,59.7 85,58.9 79.4,74.3 84.7,76 87.7,67.9 90.6,76 	"/>
	<rect x="84.9" y="20.3" class="st0" width="5.6" height="29.2"/>
</g>
<path class="st0" d="M90.4,47.3c-0.9-0.3-1.8-0.5-2.8-0.5s-1.9,0.2-2.8,0.5c-3.2,1-5.6,3.9-5.6,7.3c0,4.3,3.7,7.7,8.3,7.7
	s8.3-3.5,8.3-7.7C96,51.3,93.7,48.4,90.4,47.3z"/>
<path class="st1" d="M23.5,22.6v16.6c0,7.3,10.7,12.9,25,12.9s25-5.5,25-12.9V22.6H23.5z"/>
<path class="st2" d="M73.5,22.6v16.6c0,7.3-10.7,12.9-25,12.9V22.6H73.5z"/>
<path class="st3" d="M48.5,1L1,18.6l47.5,17.6l36.4-13.4l5.6-2.1l5.6-2.1L48.5,1z"/>
<polygon class="st4" points="96,18.6 90.4,20.7 84.9,22.8 48.5,36.2 48.5,1 "/>
</svg>
