<?xml version="1.0" encoding="utf-8"?>
<!-- Generator: Adobe Illustrator 22.0.1, SVG Export Plug-In . SVG Version: 6.00 Build 0)  -->
<svg version="1.1" id="Capa_1" xmlns="http://www.w3.org/2000/svg" xmlns:xlink="http://www.w3.org/1999/xlink" x="0px" y="0px"
	 viewBox="0 0 97.2 75.5" style="enable-background:new 0 0 97.2 75.5;" xml:space="preserve">
<style type="text/css">
	.st0{fill:#417DFE;}
	.st1{fill:#17C5EC;}
	.st2{fill:#76E1F7;}
</style>
<g>
	<g>
		<path class="st0" d="M2.8,63.9h11.7v10.2c0,0.5,0.2,0.9,0.5,1.2c0.3,0.3,0.7,0.5,1.2,0.5h8.7c0.4,0,0.8-0.2,1.2-0.5
			c0.4-0.3,0.5-0.7,0.5-1.2V63.9h26.3c0.5,0,0.9-0.2,1.2-0.5c0.3-0.3,0.5-0.7,0.5-1.2v-6.8c0-0.5-0.2-0.9-0.5-1.2
			c-0.3-0.3-0.7-0.5-1.2-0.5H26.5v-6.3h17.7c7,0,12.6-2.1,17-6.5s6.6-9.9,6.6-16.7s-2.2-12.4-6.6-16.7c-4.4-4.4-10-6.6-17-6.6H16.1
			c-0.5,0-0.9,0.2-1.2,0.5s-0.5,0.7-0.5,1.2V36H2.8c-0.5,0-0.9,0.2-1.2,0.5c-0.3,0.3-0.5,0.7-0.5,1.2v7.9c0,0.5,0.2,0.9,0.5,1.2
			c0.3,0.3,0.7,0.5,1.2,0.5h11.7v6.3H2.8c-0.5,0-0.9,0.2-1.2,0.5s-0.5,0.7-0.5,1.2V62c0,0.5,0.2,0.9,0.5,1.2
			C1.9,63.7,2.3,63.9,2.8,63.9z M26.5,12.3h16.7c3.7,0,6.6,1.1,8.9,3.3s3.4,5.1,3.4,8.6s-1.1,6.4-3.4,8.6c-2.3,2.2-5.2,3.3-8.9,3.3
			H26.5V12.3z"/>
	</g>
</g>
<path class="st1" d="M96.1,13.5c0,6.9-5.5,12.6-12.3,12.6s-12.3-5.6-12.3-12.6c0-6.9,5.5-12.6,12.3-12.6
	C90.6,0.9,96.1,6.5,96.1,13.5z"/>
<g>
	<path class="st2" d="M81.8,19.1c-0.5,0-0.8-0.4-0.8-0.9V8.6c0-0.5,0.4-0.9,0.8-0.9H86c1.8,0,3.4,1.5,3.4,3.4s-1.5,3.4-3.4,3.4h-3.4
		v3.7C82.7,18.7,82.3,19.1,81.8,19.1z M82.7,12.8H86c0.9,0,1.7-0.8,1.7-1.7S87,9.4,86,9.4h-3.4L82.7,12.8L82.7,12.8z"/>
	<path class="st2" d="M85.2,17.4h-6.1c-0.5,0-0.8-0.4-0.8-0.9s0.4-0.9,0.8-0.9h6.1c0.5,0,0.8,0.4,0.8,0.9S85.7,17.4,85.2,17.4z"/>
</g>
<path class="st1" d="M96.1,38.3c0,6.9-5.5,12.6-12.3,12.6s-12.3-5.6-12.3-12.6S77,25.8,83.8,25.8C90.6,25.8,96.1,31.4,96.1,38.3z"/>
<g>
	<path class="st2" d="M81.8,44c-0.5,0-0.8-0.4-0.8-0.9v-9.7c0-0.5,0.4-0.9,0.8-0.9H86c1.8,0,3.4,1.5,3.4,3.4s-1.5,3.4-3.4,3.4h-3.4
		v3.7C82.7,43.6,82.3,44,81.8,44z M82.7,37.8H86c0.9,0,1.7-0.8,1.7-1.7S87,34.3,86,34.3h-3.4L82.7,37.8L82.7,37.8z"/>
	<path class="st2" d="M85.2,42.3h-6.1c-0.5,0-0.8-0.4-0.8-0.9s0.4-0.9,0.8-0.9h6.1c0.5,0,0.8,0.4,0.8,0.9S85.7,42.3,85.2,42.3z"/>
</g>
<path class="st1" d="M96.1,63.3c0,6.9-5.5,12.6-12.3,12.6s-12.3-5.6-12.3-12.6S77,50.8,83.8,50.8C90.6,50.9,96.1,56.5,96.1,63.3z"/>
<g>
	<path class="st2" d="M81.8,69c-0.5,0-0.8-0.4-0.8-0.9v-9.6c0-0.5,0.4-0.9,0.8-0.9H86c1.8,0,3.4,1.5,3.4,3.4s-1.5,3.4-3.4,3.4h-3.4
		v3.7C82.7,68.6,82.3,69,81.8,69z M82.7,62.8H86c0.9,0,1.7-0.8,1.7-1.7S87,59.4,86,59.4h-3.4L82.7,62.8L82.7,62.8z"/>
	<path class="st2" d="M85.2,67.4h-6.1c-0.5,0-0.8-0.4-0.8-0.9c0-0.5,0.4-0.9,0.8-0.9h6.1c0.5,0,0.8,0.4,0.8,0.9
		C86,67,85.7,67.4,85.2,67.4z"/>
</g>
</svg>
