<?xml version="1.0" encoding="utf-8"?>
<!-- Generator: Adobe Illustrator 22.0.1, SVG Export Plug-In . SVG Version: 6.00 Build 0)  -->
<svg version="1.1" id="Слой_1" xmlns="http://www.w3.org/2000/svg" xmlns:xlink="http://www.w3.org/1999/xlink" x="0px" y="0px"
	 viewBox="0 0 524 520" style="enable-background:new 0 0 524 520;" xml:space="preserve">
<style type="text/css">
	.st0{fill:#FEFEFE;}
	.st1{fill:#00C0EF;}
	.st2{fill:#417DFE;}
	.st3{fill:#1B62FB;}
	.st4{fill:#1ED9F7;}
	.st5{fill:#BADCFE;}
</style>
<g>
	<g>
		<path class="st0" d="M7,381C7,255.8,7,130.6,7,5.2c171.7,0,343.4,0,515.6,0c0,171.3,0,342.9,0,515.1c-171.6,0-343.6,0-515.6,0
			c0-24.7,0-50,0-75.3c10.6-0.2,21.3-0.4,31.9-0.7c28,0,56.1,0.1,84.1,0.1c17.3,0,34.6-0.1,51.9-0.1c25.3-0.1,50.6-0.1,76-0.2
			c8.1,0,16.2,0,24.3,0c25.3,0.1,50.6,0.1,76,0.2c17.3,0,34.5,0,51.8,0c9.3-0.1,18.6-0.1,28-0.2c4.2,0.1,8.3,0.2,12.5,0.3
			c14.6,0,29.1,0.1,43.7,0.1c10.3,0,20.6,0,32,0c0-23.3,0.5-44.5-0.4-65.6c-0.2-4.9-4.8-9.7-7.4-14.5c-13.2-5.2-26.4-10.4-39.6-15.6
			c-2.8-4.1-5.6-8.3-8.4-12.4c-0.2-3.9-0.4-7.9-0.6-11.8c15-15.6,28.5-31.8,23.7-55.8c2.9-15.3,6.7-30.5,8.4-46
			c2.1-18.3-7.6-26.4-25.8-25.9c-14.6,0.5-29.3-0.4-43.9,0.2c-21.3,0.9-46.3,18.2-45.7,33c0.6,14.5,4.9,28.8,7.5,43.2
			c-2.1,22,6.1,39.3,23.8,52.2c0,3.6,0,7.2,0.1,10.8c-2.8,4.1-5.6,8.3-8.5,12.4c-22.2,4.6-44.4,8.6-64-7.9
			c-7.7-8.2-15.4-16.3-23.1-24.5c0-12.9,0.1-25.8,0.1-38.7c20.7-19.9,30.2-44.6,31.1-72.9c13.3-35,7.4-71.5,8.6-107.5
			c0.6-16.3-7.2-24.4-23.6-24.2c-9.3,0.1-18.6-0.1-27.9,0c-25.2,0.3-51.4-3.7-75.3,2c-51.1,12.1-71.1,53.4-49.7,118.3
			c0.2,7.3,0.3,14.5,0.5,21.8c0.8,26.8,11.6,48.6,32.3,65.6c-0.2,11.9-0.4,23.8-0.6,35.7c-6.8,8.2-13.5,16.4-20.3,24.5
			c-17.2,6.4-34.4,12.9-51.6,19.3c-3.9,1.3-7.8,2.6-11.7,3.9c0.2-1,0-1.9-0.3-2.8c-3.8-3.9-7.7-7.8-11.5-11.7
			c40.3-4,44.2-10.2,33.6-49.4c-3.1-11.3-4.9-23-5.7-34.7c-2.6-34.9-27.4-62.3-56.5-64.8c-32.5-2.9-63.4,28.8-64.1,60.2
			c-0.3,12.8-3.7,25.8-7.2,38.2c-10.4,36-3.4,46.4,35.3,50.7c-4,3.5-7.9,7-11.9,10.5c-8.1,5.4-16.2,10.8-24.3,16.2
			C12,377.9,9.5,379.5,7,381z"/>
		<path class="st1" d="M38.9,444.3c-10.6,0.2-21.3,0.4-31.9,0.7c0-21.3,0-42.7,0-64c2.5-1.5,5-3.1,7.5-4.6
			C44.1,391.3,39.4,418.6,38.9,444.3z"/>
		<path class="st2" d="M211.4,280.7c-20.8-16.9-31.5-38.8-32.3-65.6c-0.2-7.3-0.3-14.5-0.5-21.8c21.9-8.9,14.3-30.1,18.1-46.1
			c10.7-2,20.2-4.4,29.9-5.4c31.4-3.1,62.4-2.3,90.4,14.5c6.9,4.2,13.3,10.9,17.3,17.9c5.4,9.4,8.2,20.2,12.1,30.4
			c-0.9,28.3-10.4,53-31.1,72.9c-6.6,4.2-13.2,8.3-19.7,12.5C274.7,303.6,229.7,298.5,211.4,280.7z"/>
		<path class="st3" d="M346.4,204.7c-3.9-10.2-6.8-21-12.1-30.4c-4-7-10.4-13.7-17.3-17.9c-28-16.9-59-17.6-90.4-14.5
			c-9.7,0.9-19.2,3.4-29.9,5.4c-3.8,16,3.8,37.2-18.1,46.1c-21.4-64.9-1.4-106.2,49.7-118.3c23.9-5.7,50.2-1.7,75.3-2
			c9.3-0.1,18.6,0.1,27.9,0c16.4-0.2,24.1,7.9,23.6,24.2C353.8,133.2,359.7,169.7,346.4,204.7z"/>
		<path class="st3" d="M50.7,349.7c-38.7-4.2-45.7-14.6-35.3-50.7c3.6-12.4,7-25.4,7.2-38.2c0.7-31.4,31.6-63,64.1-60.2
			c29.1,2.6,53.9,29.9,56.5,64.8c0.9,11.7,2.7,23.4,5.7,34.7c10.6,39.2,6.7,45.4-33.6,49.4c-2.9-8.2-5.7-16.3-8.6-24.5
			c5.1-5.1,12.1-9.4,14.8-15.6c3.9-8.9,9.2-25.2,5.8-27.8c-16.3-12.7-34.6-23.8-53.9-30.9c-5.3-2-17,10.8-24.7,18.1
			c-22.2,21-19.7,40,6.5,56.3C53.7,333.3,52.2,341.5,50.7,349.7z"/>
		<path class="st4" d="M430.9,444.2c-9.3,0.1-18.6,0.1-28,0.2c-4.3-28.7,11.1-61.1-12.4-85.7c-20,27-47.1,49.1-39.4,85.7
			c-25.3-0.1-50.6-0.1-76-0.2c1.5-25,3.1-50.1,4.6-75.1c12.6,11.4,22.1,10,32.2-4.7c6.5-9.4,17.5-15.7,26.4-23.5
			c19.6,16.5,41.8,12.5,64,7.9c8,6.8,16,13.6,23.9,20.4C427.8,394.2,429.3,419.2,430.9,444.2z"/>
		<path class="st4" d="M250.9,444.1c-25.3,0.1-50.6,0.1-76,0.2c3.5-28.1-6.5-50.5-27.3-69.2c-4.1-3.7-5.9-9.9-8.7-14.9
			c17.2-6.4,34.4-12.9,51.6-19.3c8.1,7.8,17.8,14.6,23.9,23.8c9.8,14.8,19.5,15.5,31.9,4.4C247.8,394.1,249.3,419.1,250.9,444.1z"/>
		<path class="st2" d="M486.4,268.7c4.8,24-8.7,40.2-23.7,55.8c-17.1,11.3-34.4,8.7-51.9,1.1c-17.8-12.9-25.9-30.2-23.8-52.2
			c10.5-10.8,19.8-28.6,31.9-30.8C444.1,238.1,469.6,245.2,486.4,268.7z"/>
		<path class="st4" d="M38.9,444.3c0.5-25.7,5.3-53-24.4-68c8.1-5.4,16.2-10.8,24.3-16.2c2.1,1.6,4.3,3.1,6.2,4.9
			c23.5,22.2,46,22.8,70,2.1c3.2-2.8,7.8-4,11.8-5.9c0.4,0.9,0.5,1.8,0.3,2.8c-1.4,26.8-2.8,53.5-4.2,80.3
			C95,444.4,66.9,444.4,38.9,444.3z"/>
		<path class="st3" d="M486.4,268.7c-16.8-23.5-42.2-30.6-67.6-26.1c-12.1,2.1-21.3,20-31.9,30.8c-2.7-14.4-6.9-28.7-7.5-43.2
			c-0.6-14.8,24.4-32.1,45.7-33c14.6-0.6,29.3,0.2,43.9-0.2c18.2-0.6,27.8,7.6,25.8,25.9C493,238.2,489.2,253.4,486.4,268.7z"/>
		<path class="st4" d="M471.6,348.8c13.2,5.2,26.4,10.4,39.6,15.6c-16.4,16.8-29,35.1-24.4,60.5c1.1,6.3,0.2,13.1,0.2,19.6
			c-14.6,0-29.1-0.1-43.7-0.1c1.5-25.1,2.9-50.2,4.4-75.2C455.7,362.4,463.7,355.6,471.6,348.8z"/>
		<path class="st5" d="M211.4,280.7c18.4,17.9,63.3,22.9,84.2,9.5c6.6-4.2,13.2-8.4,19.7-12.5c0,12.9-0.1,25.8-0.1,38.7
			c-17.3,10.1-34.6,20.2-51.8,30.2c0,0-0.7,0-0.7,0c-17.3-10.1-34.6-20.2-51.9-30.3C211,304.5,211.2,292.6,211.4,280.7z"/>
		<path class="st1" d="M351.1,444.3c-7.7-36.6,19.4-58.7,39.4-85.7c23.4,24.6,8.1,57,12.4,85.7C385.6,444.3,368.4,444.3,351.1,444.3
			z"/>
		<path class="st1" d="M123,444.4c1.4-26.8,2.8-53.5,4.2-80.3c3.9-1.3,7.8-2.6,11.7-3.9c2.8,5,4.6,11.3,8.7,14.9
			c20.8,18.6,30.9,41.1,27.3,69.2C157.6,444.4,140.3,444.4,123,444.4z"/>
		<path class="st5" d="M126.9,361.3c-4,1.9-8.6,3.1-11.8,5.9c-24,20.6-46.5,20-70-2.1c-1.9-1.8-4.2-3.3-6.2-4.9
			c4-3.5,7.9-7,11.9-10.5c1.5-8.2,3.1-16.4,4.6-24.6c17.1,9.7,34.3,9.7,51.5,0c2.9,8.2,5.7,16.3,8.6,24.5
			C119.2,353.5,123,357.4,126.9,361.3z"/>
		<path class="st1" d="M263.3,346.6c17.3-10.1,34.6-20.2,51.9-30.2c7.7,8.2,15.4,16.3,23.1,24.5c-9,7.7-19.9,14-26.4,23.5
			c-10.1,14.7-19.6,16.1-32.2,4.7C274.3,361.6,268.8,354.1,263.3,346.6z"/>
		<path class="st1" d="M210.8,316.4c17.3,10.1,34.6,20.2,51.9,30.3c-5.5,7.5-11,14.9-16.4,22.4c-12.4,11.1-22.1,10.4-31.9-4.4
			c-6.1-9.2-15.8-15.9-23.9-23.8C197.3,332.7,204,324.6,210.8,316.4z"/>
		<path class="st3" d="M246.3,369c5.5-7.5,10.9-14.9,16.4-22.4c0,0,0.7,0,0.7,0c5.4,7.5,10.9,14.9,16.4,22.4
			c-1.5,25-3.1,50.1-4.6,75.1c-8.1,0-16.2,0-24.3,0C249.3,419.1,247.8,394.1,246.3,369z"/>
		<path class="st1" d="M487,444.5c0-6.5,1-13.3-0.2-19.6c-4.6-25.5,7.9-43.7,24.4-60.5c2.6,4.8,7.2,9.6,7.4,14.5
			c0.8,21.2,0.4,42.4,0.4,65.6C507.6,444.5,497.3,444.5,487,444.5z"/>
		<path class="st1" d="M471.6,348.8c-8,6.8-15.9,13.6-23.9,20.3c-7.2-10.8-14.3-10.8-21.5,0c-8-6.8-16-13.6-23.9-20.4
			c2.8-4.1,5.6-8.3,8.5-12.4c26.2,22.1,26.2,22.1,52.4,0C466,340.5,468.8,344.7,471.6,348.8z"/>
		<path class="st3" d="M426.3,369.2c7.2-10.8,14.3-10.8,21.5,0c-1.5,25.1-2.9,50.2-4.4,75.2c-4.2-0.1-8.3-0.2-12.5-0.3
			C429.3,419.2,427.8,394.2,426.3,369.2z"/>
		<path class="st5" d="M463.2,336.4c-26.2,22.1-26.2,22.1-52.4,0c0-3.6,0-7.2-0.1-10.8c17.5,7.7,34.8,10.2,51.9-1.1
			C462.8,328.5,463,332.4,463.2,336.4z"/>
		<path class="st2" d="M106.7,325.1c-17.2,9.7-34.3,9.7-51.5,0c-26.2-16.3-28.7-35.4-6.5-56.3c7.7-7.2,19.4-20.1,24.7-18.1
			c19.3,7.2,37.6,18.3,53.9,30.9c3.4,2.7-1.9,18.9-5.8,27.8C118.9,315.7,111.8,320,106.7,325.1z"/>
	</g>
</g>
</svg>
