<?xml version="1.0" encoding="utf-8"?>
<!-- Generator: Adobe Illustrator 22.0.1, SVG Export Plug-In . SVG Version: 6.00 Build 0)  -->
<svg version="1.1" id="Слой_1" xmlns="http://www.w3.org/2000/svg" xmlns:xlink="http://www.w3.org/1999/xlink" x="0px" y="0px"
	 viewBox="0 0 91.4 54" style="enable-background:new 0 0 91.4 54;" xml:space="preserve">
<style type="text/css">
	.st0{fill:#1562FC;}
	.st1{fill:#3F7EFF;}
	.st2{fill:#02DAEF;}
</style>
<g>
	<path class="st0" d="M21.6,5.7v45.1H9.4V26.6c0-3.5-0.1-5.6-0.3-6.3c-0.2-0.7-0.7-1.2-1.5-1.6c-0.8-0.4-2.6-0.5-5.5-0.5H0.9v-5.3
		c5.9-1.2,10.4-3.6,13.5-7.2H21.6z"/>
	<path class="st1" d="M49.8,25.2c1.8,0.7,3.2,1.7,4.2,3s1.5,4.5,1.5,9.5c0,3.6-0.4,6.3-1.2,8.1S52,48.9,49.8,50
		c-2.2,1.1-5.2,1.7-8.9,1.7c-3.6,0-6.5-0.5-8.6-1.6c-2.1-1.1-3.6-2.5-4.6-4.2c-0.9-1.7-1.4-4.7-1.4-8.7c0-2.7,0.2-5.1,0.7-7.1
		s1.9-3.6,4.3-4.8c-1.5-0.7-2.7-1.7-3.4-3.2c-0.8-1.5-1.1-3.3-1.1-5.6c0-3.9,1.2-6.8,3.5-8.7c2.3-1.9,5.9-2.9,10.5-2.9
		c5.4,0,9.1,1,11.2,3.1c2.1,2.1,3.1,5,3.1,8.8c0,2.4-0.3,4.2-1,5.3C53.3,23.1,51.9,24.1,49.8,25.2z M43.2,34.3
		c0-1.7-0.2-2.9-0.6-3.4c-0.4-0.6-1-0.9-1.8-0.9c-0.8,0-1.4,0.3-1.7,0.8c-0.4,0.5-0.5,1.7-0.5,3.5v5.9c0,2,0.2,3.2,0.6,3.8
		c0.4,0.6,1,0.8,1.9,0.8c0.9,0,1.5-0.3,1.8-0.9s0.5-1.8,0.5-3.8V34.3z M42.9,15.5c0-1.5-0.1-2.5-0.4-3c-0.3-0.5-0.9-0.7-1.7-0.7
		c-0.8,0-1.4,0.3-1.6,0.8c-0.3,0.5-0.4,1.5-0.4,3v3.4c0,1.4,0.2,2.3,0.5,2.8c0.3,0.5,0.9,0.8,1.6,0.8c0.8,0,1.4-0.3,1.6-0.8
		c0.3-0.5,0.4-1.6,0.4-3.2V15.5z"/>
	<path class="st2" d="M59.4,24.9h10.9v-10h7.4v10h11v6.8h-11v10h-7.4v-10H59.4V24.9z"/>
</g>
</svg>
