<?xml version="1.0" encoding="utf-8"?>
<!-- Generator: Adobe Illustrator 22.0.1, SVG Export Plug-In . SVG Version: 6.00 Build 0)  -->
<svg version="1.1" id="Слой_1" xmlns="http://www.w3.org/2000/svg" xmlns:xlink="http://www.w3.org/1999/xlink" x="0px" y="0px"
	 viewBox="0 0 90.4 74.8" style="enable-background:new 0 0 90.4 74.8;" xml:space="preserve">
<style type="text/css">
	.st0{fill:#FEFEFE;}
	.st1{fill:#17C5EC;}
	.st2{fill:#76E1F7;}
	.st3{fill:#3B5757;}
	.st4{fill:#417DFE;}
	.st5{fill:#1C62FB;}
</style>
<g>
	<g>
		<path class="st0" d="M90.3,74.6c-29.2,0-58.4,0-87.6,0.1c-1.9,0-2.4-0.4-2.4-2.1C0.4,49,0.4,25.3,0.3,1.8c0-1.7,0.4-2.1,2.4-2.1
			c28.4,0.1,56.9,0.1,85.2,0c1.9,0,2.4,0.4,2.4,2.1C90.3,26,90.3,50.3,90.3,74.6z M43.3,48.8c5.9,0.4,11.5-0.7,16.5-3.5
			c2.8-1.6,6-3.4,6-7c0.1-3.5-0.1-6.9-0.1-10.5c3.1-1.6,6.4-2.8,10-3.5c0,6,0,12.1,0.2,18.1c0,1.6-0.4,2.7-1.9,3.8
			c-3.2,2.7-4.2,5.9-0.4,8.6c1.6,1.1,1.6,2.2,0.9,3.7c-1.1,2.6-1.9,5.2-3,7.8c-0.5,1.2-0.4,1.4,1.1,2c4.2,1.7,3.2-1.7,4.2-3
			c0.5-0.7,0.1-2.2,1.6-2.2c1.5,0,1.2,1.2,1.4,2.2c0.2,0.7,0.5,1.5,0.8,2.2c0.7,1.7,1.9,1.3,3.6,0.9c2.2-0.5,1.6-1.4,1.1-2.5
			c-1-2.6-1.9-5.2-3.1-7.7c-0.7-1.4-0.4-2.2,0.7-3c4.3-3,3-6.6-0.4-9.2c-1.2-0.9-1.4-1.7-1.4-2.8c0-7,0-14,0-21.1
			c1.2-0.3,2.8-0.5,3.2-1.7c0.4-1.1-1.1-1.3-1.9-1.6c-13-4.7-26-9.2-39-13.7C30.5,9.7,17.5,14.3,4.7,18.9c-0.9,0.3-2.2,0.2-2.1,1.4
			c0.1,0.9,1.2,0.9,1.9,1.2c5.4,2.3,11.4,3.4,16.4,6.3c0,2.8,0.1,5.6-0.1,8.4c-0.3,3,1.1,5.5,3.6,7.3C29.8,47.8,36.3,48.9,43.3,48.8
			z"/>
		<path class="st1" d="M75.6,24.3c-3.5,0.7-6.8,2-10,3.5c-0.4,0.1-0.9,0.2-1.2,0.3c-7.1,2.4-14.1,4.8-21.2,7.3
			c0-10.1,0.1-20.2,0.1-30.3c13,4.5,25.9,9.1,38.9,13.7c0.8,0.3,2.3,0.5,1.9,1.6c-0.4,1.2-1.9,1.4-3.2,1.7
			C79.2,22.8,77.1,23,75.6,24.3z"/>
		<path class="st2" d="M43.4,5.1c0,10.1-0.1,20.2-0.1,30.3l0.1,0.1c-7.5-2.5-14.9-5.1-22.4-7.6c-5.1-2.9-11-4-16.4-6.3
			c-0.8-0.3-1.9-0.3-1.9-1.2c-0.1-1.2,1.2-1.1,2.1-1.4C17.5,14.3,30.5,9.7,43.4,5.1z"/>
		<path class="st3" d="M75.6,24.3c1.5-1.2,3.6-1.4,5.4-2.3c0,7,0,14,0,21.1c0,1.2,0.3,2,1.4,2.8c3.5,2.6,4.8,6.2,0.4,9.2
			c-1.1,0.8-1.4,1.6-0.7,3c1.2,2.5,2.1,5.2,3.1,7.7c0.4,1.1,1.1,2-1.1,2.5c-1.7,0.4-2.8,0.8-3.6-0.9c-0.3-0.7-0.6-1.4-0.8-2.2
			c-0.2-0.9,0.1-2.2-1.4-2.2s-1.1,1.5-1.6,2.2c-1.1,1.4,0,4.8-4.2,3c-1.4-0.5-1.6-0.8-1.1-2c1.1-2.6,1.9-5.2,3-7.8
			c0.7-1.6,0.7-2.7-0.9-3.7c-3.9-2.7-2.9-5.9,0.4-8.6c1.4-1.2,1.9-2.3,1.9-3.8C75.6,36.3,75.6,30.3,75.6,24.3z"/>
		<path class="st4" d="M43.3,35.3c7.1-2.4,14.1-4.8,21.2-7.3c0.4-0.2,0.8-0.2,1.2-0.3c0,3.5,0.2,6.9,0.1,10.5c-0.1,3.6-3.2,5.4-6,7
			c-4.9,2.8-10.6,3.8-16.5,3.5C43.3,44.3,43.3,39.9,43.3,35.3L43.3,35.3z"/>
		<path class="st5" d="M43.4,35.4c0,4.4,0,8.9,0,13.3c-7,0.1-13.5-0.9-19-5.2c-2.6-2-3.8-4.3-3.6-7.3c0.2-2.8,0.1-5.6,0.1-8.4
			C28.4,30.3,35.9,32.9,43.4,35.4z"/>
	</g>
</g>
</svg>
