<?xml version="1.0" encoding="utf-8"?>
<!-- Generator: Adobe Illustrator 22.0.1, SVG Export Plug-In . SVG Version: 6.00 Build 0)  -->
<svg version="1.1" id="Слой_1" xmlns="http://www.w3.org/2000/svg" xmlns:xlink="http://www.w3.org/1999/xlink" x="0px" y="0px"
	 viewBox="0 0 91.7 74.7" style="enable-background:new 0 0 91.7 74.7;" xml:space="preserve">
<style type="text/css">
	.st0{fill:#FEFEFE;}
	.st1{fill:#1C62FB;}
	.st2{fill:#417DFE;}
	.st3{fill:#F8FDFE;}
	.st4{fill:#19C6EC;}
	.st5{fill:#76E1F7;}
</style>
<g>
	<g>
		<g>
			<path class="st0" d="M49.6,0.3c6.6,0,13.3,0,19.9,0c1.2,0,1.4,0.2,1.4,1.5c0,23.9-0.1,47.8,0,71.7c0,2-1.1,1.5-2,1.5
				c-23,0-46.2,0-69.2,0c0-24.2,0-48.4,0-72.5c0-1.7,0.3-2.1,2-2.1c4.8,0.1,9.6,0,14.5,0c-0.8,1-0.6,2.1-0.6,3.3
				c0,10.5,0,20.9,0,31.3c-2,0-4,0.1-6,0.1c-8-0.1-7-0.7-7.1,7.7c0,2.3,0.9,3.3,3.1,3.2c3.3-0.1,6.7,0,10,0c0,2.1,0,4.1,0,6.2
				c-2.1,0-4.2,0.1-6.3,0.1c-7.7,0-6.7-0.4-6.8,7.4c0,2.2,0.9,3.1,3,3.1c3.4,0,6.7,0.1,10.1,0.1c0,3,0.1,5.9,0,8.9
				c0,1.8,0.5,2.6,2.3,2.5c2.5-0.1,5.1-0.1,7.6,0c1.9,0.1,2.3-0.8,2.3-2.5c-0.1-3,0-5.9,0-8.9c6.8,0,13.6-0.1,20.5-0.1
				c6.6,0,6.3,0.3,6.2-6.6c0-3.6-0.3-3.9-3.8-3.9c-7.6,0-15.3,0-22.9-0.1c0-1.2,0.1-2.3-0.1-3.5c-0.3-2.2,0.4-3,2.6-2.9
				c5.5,0.2,11.1,0,16.6,0.1c10.5,0.1,20-8.5,20.6-20.6C68.1,14.4,64.1,7.1,54.5,2C53,1.3,51.2,0.8,49.6,0.3z"/>
			<path class="st1" d="M15.6,34.9c0-10.5,0-20.9,0-31.3c0-1.2-0.2-2.3,0.5-3.3c11.1,0,22.2,0,33.3,0c1.6,0.5,3.4,1,4.9,1.8
				C64,7.1,68,14.5,67.5,25.4C67,37.5,57.4,46,47,45.9c-5.5,0-11.1,0.1-16.6-0.1c-2.2-0.1-2.9,0.7-2.6,2.9c0.1,1.2,0,2.3,0.1,3.5
				c0,3.5,0,7.1,0,10.6c0,3-0.1,5.9,0,8.9c0,1.8-0.4,2.6-2.3,2.5c-2.5-0.1-5.1-0.1-7.6,0c-1.8,0.1-2.3-0.8-2.3-2.5
				c0.1-3,0-5.9,0-8.9c0-3.5,0-7.1,0-10.6c0-2.1,0-4.1,0-6.2C15.6,42.3,15.6,38.6,15.6,34.9z M27.6,23.2c0,3.3,0,6.6,0,9.8
				c0,0.7-0.4,2,0.9,1.9c6.2-0.4,12.5,1.1,18.6-1.1c5.2-1.8,7.8-5.3,7.8-10.5c0-5.6-2.5-9.1-7.7-11c-6.1-2.1-12.4-0.6-18.6-1.1
				c-1.3-0.1-1.1,1-1.1,1.8C27.6,16.4,27.6,19.8,27.6,23.2z"/>
			<path class="st2" d="M27.7,62.9c0-3.5,0-7.1,0-10.6c7.6,0,15.3,0,22.9,0.1c3.5,0,3.8,0.3,3.8,3.9c0.1,6.9,0.4,6.6-6.2,6.6
				C41.5,62.7,34.6,62.8,27.7,62.9z"/>
			<path class="st2" d="M15.6,34.9c0,3.7,0,7.4,0,11.1c-3.3,0-6.7-0.1-10,0c-2.2,0-3.1-1-3.1-3.2c0.1-8.6-0.9-7.9,7.1-7.9
				C11.6,34.9,13.6,34.9,15.6,34.9z"/>
			<path class="st2" d="M15.6,52.3c0,3.5,0,7.1,0,10.6c-3.4,0-6.7-0.1-10.1-0.1c-2.1,0-3-0.8-3-3.1c0.1-7.8-0.9-7.4,6.8-7.4
				C11.4,52.3,13.5,52.3,15.6,52.3z"/>
			<path class="st0" d="M27.6,23.2c0-3.4,0-6.8,0-10.2c0-0.8-0.2-1.9,1.1-1.8c6.2,0.4,12.5-1.1,18.6,1.1c5.2,1.8,7.7,5.3,7.7,11
				c0,5.2-2.6,8.7-7.8,10.5c-6.1,2.1-12.4,0.6-18.6,1.1c-1.3,0.1-0.9-1.2-0.9-1.9C27.6,29.7,27.6,26.5,27.6,23.2z"/>
		</g>
	</g>
	<g>
		<g>
			<path class="st3" d="M70.2,61.9c0-3.9,0-7.8,0-11.7c0-0.4,0.1-0.5,0.5-0.5c6.2,0,12.4,0,18.5,0c0.4,0,0.5,0.1,0.5,0.5
				c0,7.8,0,15.8,0,23.6c0,0.4-0.1,0.5-0.5,0.5c-6.2,0-12.4,0-18.5,0c-0.4,0-0.5-0.1-0.5-0.5C70.3,69.8,70.2,65.8,70.2,61.9z
				 M89.4,61.9c0-0.8,0.1-1.8-0.1-2.6c-0.5-2.8-1.6-5.1-3.6-7c-1.2-1.2-2.5-2-3.9-2.2c-1.4-0.2-2.9-0.3-4.4,0.2
				c-2.3,0.8-4,2.4-5.2,4.7c-1.9,3.4-1.9,7-1.2,10.7c0.4,2.3,1.7,4.2,3.3,5.9c1.2,1.2,2.5,2,4.1,2.2c1.5,0.2,3.1,0.2,4.7-0.4
				c2.3-1,3.8-2.6,5-4.8C89.2,66.5,89.6,64.2,89.4,61.9z"/>
			<path class="st4" d="M89.4,61.9c0.2,2.3-0.2,4.6-1.4,6.7c-1.2,2.1-2.7,3.8-5,4.8c-1.6,0.6-3.2,0.6-4.7,0.4s-2.9-1.1-4.1-2.2
				c-1.6-1.7-2.9-3.6-3.3-5.9c-0.7-3.6-0.6-7.3,1.2-10.7c1.2-2.2,2.9-3.8,5.2-4.7c1.5-0.5,3-0.4,4.4-0.2c1.5,0.2,2.8,1.1,3.9,2.2
				c2,1.9,3.1,4.3,3.6,7C89.5,60.1,89.4,61.1,89.4,61.9z M77.8,60.1c0,0.8,0,1.8,0,2.6c0,1.3,0,1.3-1.2,1.3c-0.8,0-1.2,0.6-0.9,1.4
				c0.2,0.5,0.6,0.5,1,0.5c0.5,0,1.1-0.1,1,0.8c0,0.4,0.3,0.6,0.7,0.6s0.8-0.1,0.8-0.5c-0.1-1.1,0.5-1,1.1-1c0.3,0,0.5,0,0.8,0
				c0.6-0.1,0.7-0.5,0.7-1.1c0-0.5-0.1-0.8-0.7-0.8c-0.5,0-0.9,0-1.4,0c-0.3,0-0.5-0.1-0.5-0.5c0-0.4,0.2-0.5,0.5-0.4
				c0.7,0,1.4,0,2,0c0.8,0,1.5-0.4,2-1.1c0.7-1.1,0.9-2.1,0.6-3.4c-0.3-1.3-1.4-2.3-2.5-2.4c-1.2,0-2.4,0-3.6,0
				c-0.4,0-0.5,0.2-0.5,0.5C77.8,57.9,77.8,59,77.8,60.1z"/>
			<path class="st5" d="M77.8,60.1c0-1.2,0-2.2,0-3.4c0-0.4,0.1-0.5,0.5-0.5c1.2,0,2.4,0,3.6,0c1.1,0,2.2,1.1,2.5,2.4
				c0.3,1.3,0.1,2.3-0.6,3.4c-0.5,0.6-1.1,1.1-2,1.1c-0.7,0-1.4,0-2,0c-0.3,0-0.5,0.1-0.5,0.4c0,0.4,0.2,0.5,0.5,0.5
				c0.5,0,0.9,0,1.4,0c0.6,0,0.7,0.4,0.7,0.8c0,0.5-0.2,1-0.7,1.1c-0.2,0-0.5,0-0.8,0c-0.6,0-1.2-0.1-1.1,1c0,0.4-0.4,0.5-0.8,0.5
				c-0.4,0-0.7-0.2-0.7-0.6c0.1-1-0.5-0.8-1-0.8c-0.5,0-0.8,0-1-0.5c-0.3-0.7,0-1.4,0.9-1.4c1.2,0,1.2,0,1.2-1.3
				C77.8,61.9,77.8,61,77.8,60.1z M79.3,59.7c0,0.3,0,0.7,0,1.1s0.1,0.5,0.4,0.5c0.6,0,1.3,0,1.9,0c0.8-0.1,1.4-0.7,1.5-1.5
				c0-0.8-0.4-1.4-1.3-1.6c-0.3-0.1-0.6,0-0.9,0C79.3,58.1,79.3,58.1,79.3,59.7z"/>
			<path class="st4" d="M79.3,59.7c0-1.6,0-1.6,1.5-1.6c0.3,0,0.6,0,0.9,0c0.9,0.2,1.4,0.7,1.3,1.6c0,0.7-0.7,1.5-1.5,1.5
				c-0.6,0.1-1.2,0-1.9,0c-0.3,0-0.4-0.2-0.4-0.5C79.3,60.4,79.3,60.1,79.3,59.7z"/>
		</g>
	</g>
	<g>
		<g>
			<path class="st3" d="M70.2,37c0-3.9,0-7.8,0-11.7c0-0.5,0.1-0.5,0.6-0.5c6.1,0,12.3,0,18.4,0c0.5,0,0.5,0.1,0.5,0.6
				c0,7.8,0,15.7,0,23.5c0,0.5-0.1,0.5-0.6,0.5c-6.1,0-12.3,0-18.4,0c-0.5,0-0.5-0.1-0.5-0.6C70.3,44.9,70.2,41,70.2,37z M89.4,37.2
				c0-0.8,0.1-1.8-0.1-2.6c-0.5-2.8-1.6-5.1-3.6-7c-1.2-1.2-2.5-2-4-2.2c-1.4-0.2-2.9-0.3-4.4,0.2c-2.3,0.8-4,2.4-5.2,4.7
				c-1.9,3.3-1.9,6.9-1.3,10.5c0.4,2.3,1.7,4.3,3.3,6c1.2,1.2,2.5,2,4.1,2.2c1.5,0.2,3.1,0.2,4.7-0.4c2.2-1,3.8-2.6,5-4.8
				C89.2,41.7,89.6,39.5,89.4,37.2z"/>
			<path class="st4" d="M89.4,37.2c0.2,2.3-0.2,4.6-1.4,6.7c-1.2,2.1-2.7,3.8-5,4.8c-1.6,0.6-3.2,0.6-4.7,0.4s-2.9-1.1-4.1-2.2
				c-1.6-1.7-2.9-3.7-3.3-6c-0.6-3.6-0.6-7.2,1.3-10.5c1.2-2.2,2.9-3.8,5.2-4.7c1.5-0.5,3-0.4,4.4-0.2c1.5,0.2,2.8,1.1,4,2.2
				c2,1.9,3.1,4.3,3.6,7C89.5,35.4,89.4,36.3,89.4,37.2z M80.1,31.4c-0.6,0-1.1,0-1.7,0c-0.5,0-0.7,0.2-0.7,0.7c0,1.9,0,3.9,0,5.8
				c0,1.3,0,1.3-1.2,1.3c-0.8,0-1.2,0.6-0.9,1.4c0.2,0.5,0.6,0.5,1.1,0.5c0.6,0,1.1-0.1,1,0.8c0,0.4,0.3,0.5,0.7,0.6
				c0.4,0,0.8-0.1,0.8-0.5c-0.1-1.1,0.5-1,1.1-1c0.3,0,0.5,0,0.8,0c0.6-0.1,0.7-0.5,0.7-1.1s-0.2-0.8-0.7-0.8s-1,0-1.4,0
				c-0.2,0-0.4,0-0.4-0.3c0-0.2-0.1-0.4,0.1-0.5c0.2-0.1,0.4,0,0.6-0.1c0.9-0.1,1.9,0.2,2.8-0.3c1.4-0.8,2.1-2.4,1.6-4.1
				c-0.4-1.5-1.3-2.5-3-2.4C81,31.5,80.5,31.4,80.1,31.4z"/>
			<path class="st5" d="M80.1,31.4c0.4,0,0.9,0,1.3,0c1.7-0.1,2.6,1,3,2.4c0.5,1.8-0.2,3.4-1.6,4.1c-0.9,0.5-1.9,0.1-2.8,0.3
				c-0.2,0-0.4,0-0.6,0.1c-0.2,0.1-0.1,0.3-0.1,0.5c0,0.3,0.2,0.3,0.4,0.3c0.5,0,1,0,1.4,0c0.6,0,0.7,0.3,0.7,0.8s-0.2,1-0.7,1.1
				c-0.2,0-0.5,0-0.8,0c-0.6,0-1.2-0.2-1.1,1c0,0.4-0.4,0.5-0.8,0.5c-0.4,0-0.7-0.2-0.7-0.6c0.1-1-0.5-0.8-1-0.8s-0.8,0-1.1-0.5
				c-0.3-0.7,0-1.4,0.9-1.4c1.2,0,1.2,0,1.2-1.3c0-1.9,0-3.9,0-5.8c0-0.5,0.1-0.7,0.7-0.7C79,31.5,79.5,31.4,80.1,31.4z M79.3,34.9
				c0,1.7,0,1.7,1.6,1.7c0.2,0,0.5,0,0.7,0c0.8-0.1,1.4-0.8,1.4-1.6c0-0.8-0.4-1.4-1.3-1.6c-0.3-0.1-0.7-0.1-1-0.1
				C79.3,33.3,79.3,33.3,79.3,34.9z"/>
			<path class="st4" d="M79.3,34.9c0-1.6,0-1.6,1.4-1.6c0.3,0,0.7,0,1,0.1c0.9,0.2,1.3,0.7,1.3,1.6c0,0.7-0.6,1.5-1.4,1.6
				c-0.2,0-0.5,0-0.7,0C79.3,36.6,79.3,36.6,79.3,34.9z"/>
		</g>
	</g>
	<g>
		<g>
			<path class="st3" d="M70.2,12.3c0-3.9,0-7.8,0-11.7c0-0.4,0.1-0.5,0.5-0.5c6.2,0,12.4,0,18.5,0c0.4,0,0.5,0.1,0.5,0.5
				c0,7.8,0,15.8,0,23.6c0,0.4-0.1,0.5-0.5,0.5c-6.2,0-12.4,0-18.5,0c-0.4,0-0.5-0.1-0.5-0.5C70.3,20.2,70.2,16.2,70.2,12.3z
				 M89.4,12.3c0-0.8,0.1-1.8-0.1-2.6c-0.5-2.8-1.6-5.1-3.6-7c-1.1-1.2-2.4-2-3.9-2.2c-1.4-0.2-2.9-0.3-4.4,0.2
				c-2.3,0.8-4,2.4-5.2,4.7c-1.9,3.4-1.9,7-1.2,10.7c0.4,2.3,1.7,4.2,3.3,5.9c1.2,1.2,2.5,2,4.1,2.2c1.5,0.2,3.1,0.2,4.7-0.4
				c2.3-1,3.8-2.6,5-4.8C89.2,16.8,89.6,14.6,89.4,12.3z"/>
			<path class="st4" d="M89.4,12.3c0.2,2.3-0.2,4.6-1.4,6.7c-1.2,2.1-2.7,3.8-5,4.8c-1.6,0.6-3.2,0.6-4.7,0.4
				c-1.5-0.2-2.9-1.1-4.1-2.2c-1.6-1.7-2.9-3.6-3.3-5.9c-0.7-3.6-0.6-7.3,1.2-10.7c1.2-2.2,2.9-3.8,5.2-4.7c1.5-0.5,3-0.4,4.4-0.2
				c1.5,0.2,2.8,1.1,3.9,2.2c2,1.9,3.1,4.3,3.6,7C89.5,10.5,89.4,11.4,89.4,12.3z M77.8,10.5c0,0.8,0,1.8,0,2.6c0,1.3,0,1.3-1.2,1.3
				c-0.8,0-1.2,0.6-0.9,1.4c0.2,0.5,0.6,0.5,1,0.5c0.5,0,1.1-0.1,1,0.8c0,0.4,0.3,0.6,0.7,0.6s0.8-0.1,0.8-0.5c-0.1-1.1,0.5-1,1.1-1
				c0.3,0,0.5,0,0.8,0c0.6-0.1,0.7-0.5,0.7-1.1s-0.1-0.8-0.7-0.8c-0.5,0-0.9,0-1.4,0c-0.3,0-0.5-0.1-0.5-0.5c0-0.4,0.2-0.5,0.5-0.4
				c0.7,0,1.4,0,2,0c0.8,0,1.5-0.4,2-1.1c0.7-1.1,0.9-2.1,0.6-3.4s-1.4-2.3-2.5-2.4c-1.2,0-2.4,0-3.6,0c-0.4,0-0.5,0.2-0.5,0.5
				C77.8,8.3,77.8,9.4,77.8,10.5z"/>
			<path class="st5" d="M77.8,10.5c0-1.2,0-2.2,0-3.4c0-0.4,0.1-0.5,0.5-0.5c1.2,0,2.4,0,3.6,0c1.1,0,2.2,1.1,2.5,2.4
				c0.3,1.3,0.1,2.3-0.6,3.4c-0.5,0.6-1.1,1.1-2,1.1c-0.7,0-1.4,0-2,0c-0.3,0-0.5,0.1-0.5,0.4c0,0.4,0.2,0.5,0.5,0.5
				c0.5,0,0.9,0,1.4,0c0.6,0,0.7,0.4,0.7,0.8c0,0.5-0.2,1-0.7,1.1c-0.2,0-0.5,0-0.8,0c-0.6,0-1.2-0.1-1.1,1c0,0.4-0.4,0.5-0.8,0.5
				c-0.4,0-0.7-0.2-0.7-0.6c0.1-1-0.5-0.8-1-0.8c-0.5,0-0.8,0-1-0.5c-0.3-0.7,0-1.4,0.9-1.4c1.2,0,1.2,0,1.2-1.3
				C77.8,12.3,77.8,11.3,77.8,10.5z M79.3,10.1c0,0.3,0,0.7,0,1.1c0,0.3,0.1,0.5,0.4,0.5c0.6,0,1.3,0,1.9,0c0.8-0.1,1.4-0.7,1.5-1.5
				c0-0.8-0.4-1.4-1.3-1.6c-0.3-0.1-0.6,0-0.9,0C79.3,8.5,79.3,8.5,79.3,10.1z"/>
			<path class="st4" d="M79.3,10.1c0-1.6,0-1.6,1.5-1.6c0.3,0,0.6,0,0.9,0c0.9,0.2,1.4,0.7,1.3,1.6c0,0.7-0.7,1.5-1.5,1.5
				c-0.6,0.1-1.2,0-1.9,0c-0.3,0-0.4-0.2-0.4-0.5C79.3,10.8,79.3,10.5,79.3,10.1z"/>
		</g>
	</g>
</g>
</svg>
