<?xml version="1.0" encoding="utf-8"?>
<!-- Generator: Adobe Illustrator 22.0.1, SVG Export Plug-In . SVG Version: 6.00 Build 0)  -->
<svg version="1.1" id="Слой_1" xmlns="http://www.w3.org/2000/svg" xmlns:xlink="http://www.w3.org/1999/xlink" x="0px" y="0px"
	 viewBox="0 0 1280 1024" style="enable-background:new 0 0 1280 1024;" xml:space="preserve">
<style type="text/css">
	.st0{fill:#FEFEFE;}
	.st1{fill:#1EDFFE;}
	.st2{fill:#417DFE;}
	.st3{fill:#1C62FB;}
	.st4{fill:#DFF2FD;}
	.st5{fill:#DFF2FC;}
	.st6{fill:#00C0EF;}
	.st7{fill:#BBDCFE;}
	.st8{fill:#3B5757;}
</style>
<g>
	<g>
		<path class="st0" d="M561,579c-1.2,0-2.5,0-3.7,0c0-32.2,0-64.4,0-96.7c32.2,0,64.3,0,96.7,0c0,29.4,0,58.9,0,88.4
			c-0.5-2.5-1-4.9-1.5-7.4c-0.8-4.1-1.6-8.5-6.1-10.2c-6.6-2.6-13.4-4.8-20.1-7.1c-0.7-0.2-1.5-0.5-2.2-0.7c-2-0.8-4.1-1.5-6.1-2.3
			c0-2.2,0-4.4,0.1-6.6c2-3,4.4-5.9,5.9-9.1c1.3-2.9,1.6-6.3,2.4-9.5c4.7-6,3.7-13,3.7-19.9c0-3.4-1.6-5.7-4.3-7.6
			c-0.7-0.5-1.6-1.3-1.6-2c0.1-4.3-2.6-5.2-6-5.2c-6.7,0-13.5,0-20.2,0c-7,0-13.4,4.1-15,10.9c-1.7,7.3-2.3,14.9,2.9,21.5
			c0.3,2.7,0.4,5.4,0.9,8.1c0.9,5.8,4,10.4,8.2,14.2c-0.3,1.8-0.5,3.5-0.8,5.3c-2,0.8-4.1,1.5-6.1,2.3c-0.7,0.2-1.5,0.4-2.2,0.7
			c-6.5,2.3-12.9,4.5-19.4,6.8c-3.6,1.3-5.4,4.1-6.1,7.7c-0.7,3.9-1.5,7.7-2.2,11.6C557.6,574.9,558.3,577.4,561,579z"/>
		<path class="st1" d="M561,579c-2.7-1.6-3.4-4.1-3-7c0.6-3.9,1.4-7.7,2.2-11.6c0.7-3.6,2.5-6.4,6.1-7.7c6.4-2.3,12.9-4.5,19.4-6.8
			c-0.1,1,0.1,2-0.3,2.9c-1,2.4-2.2,4.6-3.5,7.3c2.2,0.3,3.9,0.6,6.1,0.9c-2.4,3.4-0.9,5.3,1.3,7.3c3.8,3.3,7.4,6.9,11.2,10.3
			c0.8,0.7,2.2,0.9,3.3,1.4c0.2,0.2,0.4,0.4,0.7,0.7c0.5,0.5,1,1,1.5,1.5c0.5-0.5,1-1,1.5-1.5c0.2-0.2,0.4-0.4,0.7-0.7
			c1-0.4,2.2-0.5,3-1.1c3.5-3.1,7-6.3,10.4-9.6c2.3-2.2,5.7-4.1,2.5-8.4c2.4-0.3,4-0.5,6.1-0.8c-1.2-2.4-2.3-4.5-3.1-6.6
			c-0.4-1.1-0.4-2.4-0.6-3.5c6.7,2.4,13.4,4.6,20.1,7.1c4.5,1.7,5.3,6.1,6.1,10.2c0.5,2.5,1,4.9,1.5,7.4c0,2.7,0,5.5,0,8.3
			C623,579,592,579,561,579z"/>
		<path class="st2" d="M594.8,537.7c-4.2-3.9-7.3-8.5-8.2-14.2c-0.4-2.7-0.6-5.4-0.9-8.1c0-1.4,0.1-2.7,0-4.1
			c-0.7-10.7,4.2-13.3,12.4-12.6c1.6,0.1,3.4,0.1,4.7-0.6c6.5-3.6,12.4-1.1,18.4,1.5c3.5,1.5,4.9,4.4,5,8c0.1,3.4,0,6.7,0.1,10.1
			c-0.8,3.2-1.1,6.6-2.4,9.5c-1.5,3.3-3.9,6.1-5.9,9.1c-0.6,0.4-1.2,0.8-1.8,1.3c-4.7,4.3-11.3,7.3-18.6,1.6
			C596.8,538.6,595.8,538.2,594.8,537.7z"/>
		<path class="st3" d="M626.3,517.7c0-3.4,0-6.7-0.1-10.1c-0.1-3.6-1.5-6.5-5-8c-6-2.6-11.9-5.1-18.4-1.5c-1.3,0.7-3.2,0.8-4.7,0.6
			c-8.2-0.7-13,1.9-12.4,12.6c0.1,1.4,0,2.7,0,4.1c-5.1-6.6-4.6-14.2-2.9-21.5c1.6-6.8,7.9-10.9,15-10.9c6.7,0,13.5,0,20.2,0
			c3.5,0,6.1,0.9,6,5.2c0,0.7,0.9,1.5,1.6,2c2.7,1.9,4.3,4.2,4.3,7.6C630,504.7,631,511.7,626.3,517.7z"/>
		<path class="st4" d="M587.9,545.3c2-0.8,4.1-1.5,6.1-2.3c3.8,2.5,7.5,5,11.3,7.5c-0.5,1.1-0.9,2.1-1.4,3.2
			c-0.5,1.2-1.5,2.4-1.5,3.5c0,5,0.3,10,0.5,15C597.9,563.3,592.9,554.3,587.9,545.3z"/>
		<path class="st5" d="M618,543c2,0.8,4.1,1.5,6.1,2.3c-5,9-10,18-15,27c0-0.7,0-1.5-0.1-2.2c-0.7-6.4,2.1-13.2-2.3-19.1
			c-0.1-0.1,0-0.2,0-0.4C610.4,548,614.2,545.5,618,543z"/>
		<path class="st6" d="M587.9,545.3c5,9,10,18,15,27c0.3,1.3,0.6,2.5,0.9,3.8c-1.1-0.5-2.4-0.7-3.3-1.4c-3.8-3.4-7.4-7-11.2-10.3
			c-2.3-2-3.7-4-1.3-7.3c-2.2-0.3-4-0.6-6.1-0.9c1.3-2.6,2.5-4.9,3.5-7.3c0.4-0.9,0.2-1.9,0.3-2.9
			C586.4,545.7,587.2,545.5,587.9,545.3z"/>
		<path class="st6" d="M609.1,572.2c5-9,10-18,15-27c0.7,0.2,1.5,0.5,2.2,0.7c0.2,1.2,0.2,2.5,0.6,3.5c0.9,2.1,2,4.2,3.1,6.6
			c-2.1,0.3-3.7,0.5-6.1,0.8c3.2,4.3-0.2,6.2-2.5,8.4c-3.4,3.3-6.8,6.5-10.4,9.6c-0.8,0.7-2,0.8-3,1.1
			C608.5,574.8,608.8,573.5,609.1,572.2z"/>
		<path class="st7" d="M618,543c-3.8,2.5-7.5,5-11.3,7.5c-0.5,0-0.9,0-1.4,0c-3.8-2.5-7.5-5-11.3-7.5c0.3-1.8,0.5-3.5,0.8-5.3
			c1,0.5,2,0.9,2.9,1.5c7.3,5.7,13.9,2.7,18.6-1.6c0.5-0.5,1.2-0.8,1.8-1.3C618,538.6,618,540.8,618,543z"/>
		<path class="st8" d="M605.3,550.5c0.5,0,0.9,0,1.4,0c0,0.1,0,0.3,0,0.4c4.4,5.9,1.5,12.8,2.3,19.1c0.1,0.7,0.1,1.5,0.1,2.2
			c-0.3,1.3-0.6,2.5-0.9,3.8c-0.2,0.2-0.4,0.4-0.7,0.7c-1,0-2,0-3,0c-0.2-0.2-0.4-0.4-0.7-0.7c-0.3-1.3-0.6-2.5-0.9-3.8
			c-0.2-5-0.5-10-0.5-15c0-1.2,1-2.4,1.5-3.5C604.4,552.7,604.8,551.6,605.3,550.5z"/>
		<path class="st6" d="M604.5,576.7c1,0,2,0,3,0c-0.5,0.5-1,1-1.5,1.5C605.5,577.7,605,577.2,604.5,576.7z"/>
	</g>
</g>
</svg>
