<?xml version="1.0" encoding="utf-8"?>
<!-- Generator: Adobe Illustrator 22.0.1, SVG Export Plug-In . SVG Version: 6.00 Build 0)  -->
<svg version="1.1" id="Слой_1" xmlns="http://www.w3.org/2000/svg" xmlns:xlink="http://www.w3.org/1999/xlink" x="0px" y="0px"
	 viewBox="0 0 1280 1024" style="enable-background:new 0 0 1280 1024;" xml:space="preserve">
<style type="text/css">
	.st0{fill:#1C62FB;}
	.st1{fill:#FEFEFE;}
	.st2{fill:#17C5EC;}
	.st3{fill:#76E1F7;}
	.st4{fill:#8B8B8B;}
	.st5{fill:#C2D6F3;}
</style>
<g>
	<g>
		<path class="st0" d="M572.8,588c-2,0-4,0-6,0c0-25.2,0-50.3,0-75.5c0-1.4,0.4-2.8,0.6-4.2c5.2,0,10.4,0,15.6,0
			c0-5.4,0-10.5,0-15.6c1.2-0.2,2.3-0.6,3.5-0.6c17.2,0,34.5,0,51.7,0c1.1,0,2.2,0.1,3.5,0.2c0,32.1,0,63.9,0,95.8
			c-11.8,0-23.5,0-35.3,0c0-1.7,0.1-3.5,0-5.2c-0.1-2,0.6-3.1,2.7-3c3.3,0.1,2.5-2.5,2.5-4.3c0-1.9,1.1-4.7-2.5-4.6
			c-2.9,0-2.6-1.9-2.7-3.8c0-2,0-3.8,2.8-3.8c0.8,0,2.2-0.9,2.2-1.3c0-3,1.7-6.4-2.1-8.4c9.9-7.6,8.7-17.9,3.1-24.2
			c-5.3-5.9-16.1-5.8-21.9,0c-3.1,3.1-4.4,6.8-4.4,11.1c0.1,6,3.2,10.2,8.8,13.9c-4.6,0-8.2,0-11.8,0c-5.1,0-4.9,0-5.4,5
			c-0.1,1.1-1.3,3.1-2,3.1c-3.9,0-3.1,2.8-3.2,5c-0.1,2.2-0.3,4.4,3,4.2c2.5-0.1,2.2,1.9,2.2,3.5c-0.1,1.6,0.7,3.9-2.1,3.9
			c-2.9,0-3.2,1.6-3.1,3.8C572.8,584.5,572.8,586.3,572.8,588z M599.6,516.7c8.2,0,16.5,0.1,24.7-0.1c1.3,0,2.6-1.1,3.9-1.7
			c-1.3-0.6-2.5-1.8-3.8-1.8c-16.4-0.1-32.9-0.1-49.3,0c-1.2,0-2.4,1.3-3.7,1.9c1.2,0.6,2.4,1.6,3.6,1.7
			C583.2,516.8,591.4,516.7,599.6,516.7z M604.2,507c3.9,0,7.7,0.1,11.6-0.1c0.9,0,1.8-1.2,2.6-1.8c-0.8-0.6-1.6-1.7-2.4-1.7
			c-7.8-0.1-15.7-0.1-23.5,0c-0.8,0-1.6,1.1-2.4,1.7c0.9,0.7,1.7,1.8,2.6,1.9C596.5,507.1,600.4,507,604.2,507z M581.6,523.5
			c2.6,0,5.2,0.2,7.8-0.1c1-0.1,1.8-1.1,2.7-1.7c-0.9-0.6-1.7-1.8-2.6-1.8c-5.2-0.2-10.4-0.2-15.6,0c-0.9,0-1.7,1.2-2.6,1.9
			c0.9,0.6,1.8,1.6,2.8,1.7C576.6,523.7,579.1,523.5,581.6,523.5z M620.3,523.4C620.3,523.4,620.3,523.4,620.3,523.4
			c2,0,4,0.2,5.9-0.1c0.7-0.1,1.3-1.1,1.9-1.7c-0.6-0.6-1.3-1.7-1.9-1.7c-4-0.2-7.9-0.2-11.9,0c-0.6,0-1.4,1.2-1.6,1.9
			c-0.1,0.4,1,1.5,1.6,1.5C616.3,523.6,618.3,523.4,620.3,523.4z"/>
		<path class="st1" d="M567.4,508.3c-0.2,1.4-0.6,2.8-0.6,4.2c0,25.2,0,50.3,0,75.5c-3.5,0-7,0-10.5,0c0-32.2,0-64.4,0-96.7
			c32.2,0,64.3,0,96.6,0c0,32.2,0,64.4,0,96.7c-3.6,0-7.4,0-11.1,0c0-31.8,0-63.7,0-95.8c-1.3-0.1-2.4-0.2-3.5-0.2
			c-17.2,0-34.5,0-51.7,0c-1.2,0-2.3,0.4-3.5,0.6C577.8,497.9,572.6,503.1,567.4,508.3z"/>
		<path class="st2" d="M572.8,588c0-1.7,0.1-3.5,0-5.2c-0.1-2.3,0.2-3.9,3.1-3.8c2.8,0,2.1-2.3,2.1-3.9c0.1-1.6,0.4-3.6-2.2-3.5
			c-3.3,0.1-3.1-2.1-3-4.2c0.1-2.2-0.8-5,3.2-5c0.7,0,1.9-2,2-3.1c0.4-4.9,0.3-5,5.4-5c3.6,0,7.2,0,11.8,0
			c-5.6-3.7-8.7-7.9-8.8-13.9c-0.1-4.3,1.3-8.1,4.4-11.1c5.8-5.8,16.6-5.9,21.9,0c5.6,6.3,6.8,16.6-3.1,24.2c3.8,2,2.1,5.4,2.1,8.4
			c0,0.5-1.4,1.3-2.2,1.3c-2.8,0-2.8,1.8-2.8,3.8c0,1.9-0.2,3.9,2.7,3.8c3.6-0.1,2.5,2.8,2.5,4.6c0,1.8,0.9,4.4-2.5,4.3
			c-2.2,0-2.8,1.1-2.7,3c0.1,1.7,0,3.5,0,5.2c-0.3,0-0.5,0-0.8,0c0-1.2-0.1-2.5,0-3.7c0.5-3.6-1-4.7-4.6-4.6
			c-6.5,0.3-12.9,0.1-19.4,0.1c-8.3,0-8.3,0-8.3,8.3C573.3,588,573,588,572.8,588z M594.5,562.5c4.4,0,8.7-0.1,13.1,0
			c3,0.1,3.5-1.4,3.5-3.9c0-2.3-0.4-3.7-3.3-3.7c-8.6,0.1-17.2,0.1-25.8,0c-2.8,0-3.3,1.3-3.3,3.7c0,2.5,0.4,4,3.4,3.9
			C586.3,562.4,590.4,562.5,594.5,562.5z M589.9,563.3c-4.5,0-9,0.1-13.5,0c-3.1-0.1-2.9,1.9-2.9,4c-0.1,2.1,0.3,3.6,3,3.5
			c8.7-0.1,17.5-0.1,26.2,0c3,0,3.1-1.6,3.1-3.8c0-2.3-0.3-3.9-3.2-3.7C598.4,563.4,594.1,563.3,589.9,563.3z M594.7,579
			c4.2,0,8.5-0.1,12.7,0c2.8,0.1,3.7-1,3.7-3.7c0-2.5-0.5-3.9-3.5-3.9c-8.5,0.2-17,0.2-25.4,0c-3-0.1-3.4,1.4-3.5,3.9
			c-0.1,2.7,0.9,3.8,3.7,3.7C586.5,578.9,590.6,579,594.7,579z M600.3,536.2c1.2-0.3,1.9-0.4,2.5-0.7c1.2-0.6,2.4-1.2,3.6-1.8
			c-0.9-1-1.6-2.1-2.6-3c-1.4-1.2-2.5-1.4-4,0.3c-5.3,5.9-5,7.8,2.3,11.5c0.2,0.1,0.2,0.4,0.7,1.2c-1.5,0.3-3,0.3-4.1,0.9
			c-1,0.6-2.3,2-2.2,2.9c0.3,2.1,5.8,3,7.2,1.3c4.7-5.6,4.3-7.8-2.2-11.3C601.1,537.4,601,537,600.3,536.2z"/>
		<path class="st3" d="M573.5,588c0-8.3,0-8.3,8.3-8.3c6.5,0,12.9,0.2,19.4-0.1c3.6-0.1,5.1,1,4.6,4.6c-0.2,1.2,0,2.5,0,3.7
			C595,588,584.3,588,573.5,588z"/>
		<path class="st4" d="M599.6,516.7c-8.2,0-16.4,0.1-24.7-0.1c-1.2,0-2.4-1.1-3.6-1.7c1.2-0.7,2.4-1.9,3.7-1.9
			c16.4-0.1,32.9-0.1,49.3,0c1.3,0,2.5,1.2,3.8,1.8c-1.3,0.6-2.6,1.7-3.9,1.7C616.1,516.8,607.8,516.7,599.6,516.7z"/>
		<path class="st5" d="M567.4,508.3c5.2-5.2,10.4-10.4,15.6-15.6c0,5.1,0,10.2,0,15.6C577.8,508.3,572.6,508.3,567.4,508.3z"/>
		<path class="st4" d="M604.2,507c-3.9,0-7.7,0.1-11.6-0.1c-0.9,0-1.7-1.2-2.6-1.9c0.8-0.6,1.6-1.6,2.4-1.7c7.8-0.1,15.7-0.1,23.5,0
			c0.8,0,1.6,1.1,2.4,1.7c-0.9,0.6-1.7,1.8-2.6,1.8C611.9,507.1,608.1,507,604.2,507z"/>
		<path class="st4" d="M581.6,523.5c-2.5,0-5,0.2-7.4-0.1c-1-0.1-1.9-1.1-2.8-1.7c0.8-0.7,1.7-1.9,2.6-1.9c5.2-0.2,10.4-0.2,15.6,0
			c0.9,0,1.7,1.2,2.6,1.8c-0.9,0.6-1.8,1.6-2.7,1.7C586.8,523.7,584.2,523.5,581.6,523.5z"/>
		<path class="st4" d="M620.3,523.4c-2,0-4,0.1-5.9-0.1c-0.6-0.1-1.7-1.1-1.6-1.5c0.2-0.8,1-1.9,1.6-1.9c3.9-0.2,7.9-0.2,11.9,0
			c0.7,0,1.3,1.1,1.9,1.7c-0.6,0.6-1.2,1.7-1.9,1.7C624.3,523.6,622.3,523.5,620.3,523.4C620.3,523.4,620.3,523.4,620.3,523.4z"/>
		<path class="st3" d="M594.5,562.5c-4.1,0-8.2-0.1-12.3,0c-3,0.1-3.5-1.4-3.4-3.9c0-2.4,0.5-3.7,3.3-3.7c8.6,0.1,17.2,0.1,25.8,0
			c2.8,0,3.2,1.4,3.3,3.7c0,2.5-0.4,4-3.5,3.9C603.2,562.4,598.9,562.5,594.5,562.5z"/>
		<path class="st3" d="M589.9,563.3c4.2,0,8.5,0.1,12.7,0c2.9-0.1,3.2,1.4,3.2,3.7c0,2.2-0.2,3.9-3.1,3.8c-8.7-0.1-17.5-0.1-26.2,0
			c-2.7,0-3.1-1.4-3-3.5c0.1-2-0.2-4.1,2.9-4C580.9,563.4,585.4,563.3,589.9,563.3z"/>
		<path class="st3" d="M594.7,579c-4.1,0-8.2-0.1-12.3,0c-2.8,0.1-3.7-1-3.7-3.7c0.1-2.5,0.4-3.9,3.5-3.9c8.5,0.2,17,0.2,25.4,0
			c3-0.1,3.4,1.4,3.5,3.9c0.1,2.7-0.8,3.8-3.7,3.7C603.2,578.9,598.9,579,594.7,579z"/>
		<path class="st3" d="M600.3,536.2c0.7,0.8,0.8,1.2,1.1,1.4c6.4,3.5,6.9,5.7,2.2,11.3c-1.4,1.7-6.9,0.8-7.2-1.3
			c-0.1-0.9,1.2-2.3,2.2-2.9c1.1-0.6,2.6-0.6,4.1-0.9c-0.4-0.8-0.5-1.1-0.7-1.2c-7.3-3.7-7.6-5.7-2.3-11.5c1.5-1.7,2.7-1.5,4-0.3
			c1,0.9,1.8,2,2.6,3c-1.2,0.6-2.4,1.3-3.6,1.8C602.2,535.8,601.5,535.9,600.3,536.2z"/>
	</g>
</g>
</svg>
