<?xml version="1.0" encoding="utf-8"?>
<!-- Generator: Adobe Illustrator 22.0.1, SVG Export Plug-In . SVG Version: 6.00 Build 0)  -->
<svg version="1.1" id="Слой_1" xmlns="http://www.w3.org/2000/svg" xmlns:xlink="http://www.w3.org/1999/xlink" x="0px" y="0px"
	 viewBox="0 0 1280 1024" style="enable-background:new 0 0 1280 1024;" xml:space="preserve">
<style type="text/css">
	.st0{fill:#FEFEFE;}
	.st1{fill:#17C5EC;}
	.st2{fill:#417DFE;}
	.st3{fill:#1C62FB;}
	.st4{fill:#76E1F7;}
	.st5{fill:#2468FC;}
	.st6{fill:#DFF2FD;}
	.st7{fill:#E0F3FD;}
</style>
<g>
	<g>
		<path class="st0" d="M654,542.3c0,12.2,0,24.5,0,36.7c-32.2,0-64.4,0-96.7,0c0-32.2,0-64.3,0-96.6c32.2,0,64.4,0,96.7,0
			c0,17.9,0,35.9,0,53.9c-0.2-0.3-0.6-0.5-0.6-0.8c-1.1-9.4-2.1-18.9-3.1-28.3c-0.5-5-0.9-5.4-5.7-4.7c-1,0.1-2,0-3,0.1
			c-6.9,0.5-9,2.1-9.4,7.5c-1.8-0.4-3.6-0.6-5.3-1.2c-2.9-1.2-5.7-3.6-8.6-3.8c-6.7-0.3-13.5-0.2-19.8,3c-1.9-0.5-3.7-1-5.6-1.5
			c-2.8-0.7-5.3-0.1-6.5,2.5c-1.4,3.1-3.7,3.6-6.6,3.2c-0.1-6.2-1.3-8.4-5.1-9c-3-0.5-6.1-1.1-9.1-1.3c-1-0.1-2.7,1-2.9,1.8
			c-0.8,3.2-1.2,6.5-1.6,9.8c-0.9,7.4-1.4,14.8-2.5,22.1c-1,6.4-1.3,6.6,4.9,7.7c4.8,0.8,10,1.7,13.3-3.5c1.5,0,2.9,0.1,4.4,0.1
			c-2.2,5.6-0.8,7.9,4.5,7.1c-0.5,4.1,2.5,4.2,5.1,4.4c0.6,3.7,2.6,4.9,5.1,4.1c1.2,1.6,2,3.3,3.3,4.1c0.8,0.4,2.4-0.7,3.7-1.2
			c2.3,0.2,4.1-1.8,5.7-2.2c3.9-1.1,7.2-3.1,10.8-4.8c1.4-0.7,3.2-0.6,4.4-1.5c1.6-1.1,2.5-2.4,5-2.1c1.4,0.2,3.3-1.7,4.5-3.1
			c0.3-0.3-1.1-2.2-1.7-3.4c-0.7-1-1.5-1.9-2.2-2.9c2.2,0,4.4,0,6.6,0c-0.3,3,1.4,5.1,4,5.1C644.6,543.6,649.3,542.7,654,542.3z"/>
		<path class="st1" d="M654,542.3c-4.7,0.5-9.4,1.3-14,1.3c-2.6,0-4.3-2-4-5.1c-0.6-6.4-1-12.8-1.7-19.2c-0.4-3.2-1.3-6.2-2-9.3
			c0.4-5.3,2.5-7,9.4-7.5c1-0.1,2,0.1,3-0.1c4.8-0.7,5.1-0.4,5.7,4.7c1,9.4,2,18.9,3.1,28.3c0,0.3,0.4,0.5,0.6,0.8
			C654,538.3,654,540.3,654,542.3z M645.1,539.4c1.5-2.2,2.9-3.4,2.8-4.3c-0.2-1.2-1.7-2.2-2.7-3.3c-1,1.1-2.6,2.1-3,3.4
			C642,535.9,643.5,537.2,645.1,539.4z"/>
		<path class="st2" d="M581.2,540c-1.5,0-2.9-0.1-4.4-0.1c1-9.2,2-18.4,3-27.7c2.9,0.3,5.2-0.1,6.6-3.2c1.2-2.6,3.8-3.2,6.5-2.5
			c1.9,0.5,3.8,1,5.6,1.5c-0.5,1.4-0.9,2.8-1.6,4.1c-2.4,4.3-5.1,8.6-7.2,13c-0.5,1.1,0.1,3.9,0.9,4.2c1.8,0.7,4.4,1.2,6,0.4
			c3.2-1.7,6-4.3,9.1-6.7c0.7,0.5,1.9,1.7,3.3,2c5.3,1.1,8.7,4.9,12.4,8.2c2.4,2.1,5.4,3.7,8.1,5.5c0.7,1,1.5,1.9,2.2,2.9
			c-4.8,4.7-4.8,4.7-9.2,1.3c-0.1-0.1-0.4,0.1-0.7,0.1c0.3,0.2,0.5,0.3,0.8,0.5c-1,1.9-1.7,5-2.9,5.3c-1.9,0.4-4.3-1.3-6.9-2.3
			c0.9,1.3,1.5,2.2,2.3,3.4c-3.1,1.8-6,3.6-8.9,5.3c0.1-2.5,0.1-4.8-3.2-5.4c-0.6-0.1-1.2-1.1-1.5-1.8c-1.2-2.7-3.1-3.8-6.1-2.7
			c-0.9-3.8-3.5-4.1-6.6-3.3C586.2,537.8,585.1,537.6,581.2,540z"/>
		<path class="st3" d="M629.3,538.5c-2.7-1.8-5.6-3.4-8.1-5.5c-3.8-3.3-7.1-7.1-12.4-8.2c-1.4-0.3-2.5-1.5-3.3-2
			c-3.1,2.4-5.8,5-9.1,6.7c-1.6,0.8-4.2,0.4-6-0.4c-0.8-0.3-1.4-3.1-0.9-4.2c2.2-4.5,4.8-8.7,7.2-13c0.7-1.3,1.1-2.7,1.6-4.1
			c6.3-3.2,13.1-3.3,19.8-3c2.9,0.1,5.7,2.6,8.6,3.8c1.7,0.7,3.5,0.8,5.3,1.2c0.7,3.1,1.7,6.2,2,9.3c0.7,6.4,1.2,12.8,1.7,19.2
			C633.7,538.5,631.5,538.5,629.3,538.5z"/>
		<path class="st4" d="M579.8,512.2c-1,9.2-2,18.4-3,27.7c-3.4,5.2-8.5,4.3-13.3,3.5c-6.2-1.1-5.9-1.3-4.9-7.7
			c1.1-7.3,1.6-14.7,2.5-22.1c0.4-3.3,0.8-6.6,1.6-9.8c0.2-0.8,2-1.8,2.9-1.8c3.1,0.2,6.1,0.8,9.1,1.3
			C578.5,503.9,579.7,506.1,579.8,512.2z M566.9,539.2c1.5-1.9,3.1-3.2,2.9-3.8c-0.5-1.4-1.9-2.4-2.9-3.6c-1,1.1-2.5,2-2.7,3.2
			C564,535.9,565.5,537.2,566.9,539.2z"/>
		<path class="st3" d="M581.2,540c3.9-2.5,5.1-2.2,7.4,1.8c3.1-0.8,5.7-0.5,6.6,3.3c3.1-1.1,4.9,0,6.1,2.7c0.3,0.7,0.9,1.7,1.5,1.8
			c3.3,0.6,3.3,2.9,3.2,5.4c0,0,0,0,0,0c-0.5,0.5-1,1-1.5,1.5c-0.5,0.7-1,1.4-1.5,2c-1.3,0.4-2.9,1.6-3.7,1.2
			c-1.3-0.7-2.1-2.4-3.3-4.1c-2.6,0.8-4.6-0.4-5.1-4.1c-2.7-0.2-5.7-0.3-5.1-4.4C580.4,547.9,579,545.6,581.2,540z"/>
		<path class="st5" d="M603,558.5c0.5-0.7,1-1.4,1.5-2c0.5-0.5,1-1,1.5-1.5c0,0,0,0,0,0c2.9-1.7,5.8-3.4,8.9-5.3
			c-0.8-1.3-1.4-2.1-2.3-3.4c2.7,1,5,2.6,6.9,2.3c1.3-0.2,2-3.4,2.9-5.3c-0.3-0.2-0.5-0.3-0.8-0.5c0.2,0,0.6-0.2,0.7-0.1
			c4.4,3.4,4.4,3.4,9.2-1.3c0.6,1.2,2.1,3.1,1.7,3.4c-1.2,1.4-3.1,3.3-4.5,3.1c-2.5-0.3-3.4,1-5,2.1c-1.2,0.8-3,0.8-4.4,1.5
			c-3.5,1.7-6.9,3.7-10.8,4.8C607.1,556.8,605.3,558.7,603,558.5z"/>
		<path class="st6" d="M645.1,539.4c-1.5-2.2-3.1-3.5-2.9-4.2c0.4-1.3,1.9-2.3,3-3.4c0.9,1.1,2.4,2.1,2.7,3.3
			C648,536,646.5,537.2,645.1,539.4z"/>
		<path class="st7" d="M566.9,539.2c-1.4-2.1-2.9-3.3-2.7-4.2c0.2-1.2,1.8-2.2,2.7-3.2c1,1.2,2.4,2.2,2.9,3.6
			C570,536,568.5,537.3,566.9,539.2z"/>
		<path class="st2" d="M606,555c-0.5,0.5-1,1-1.5,1.5C605,556,605.5,555.5,606,555z"/>
	</g>
</g>
</svg>
