<?xml version="1.0" encoding="utf-8"?>
<!-- Generator: Adobe Illustrator 22.0.1, SVG Export Plug-In . SVG Version: 6.00 Build 0)  -->
<svg version="1.1" id="Слой_1" xmlns="http://www.w3.org/2000/svg" xmlns:xlink="http://www.w3.org/1999/xlink" x="0px" y="0px"
	 viewBox="0 0 1280 1024" style="enable-background:new 0 0 1280 1024;" xml:space="preserve">
<style type="text/css">
	.st0{fill:#FEFEFE;}
	.st1{fill:#1DDFFE;}
	.st2{fill:#517A83;}
	.st3{fill:#417DFE;}
	.st4{fill:#1C62FB;}
	.st5{fill:#BBDCFE;}
	.st6{fill:#16C5EC;}
</style>
<g>
	<g>
		<path class="st0" d="M653.2,507.7c0,4.9,0,9.8,0,14.8c-0.5,0.2-0.9,0.5-1.4,0.7c-0.7,0-1.4,0-2.1,0c-0.6-0.1-1.2-0.2-1.7-0.3
			c0.1,0.6,0.2,1.2,0.3,1.7c0,0.7,0,1.4,0,2.1c-0.4,0.3-1.3,0.7-1.2,0.9c0.6,3.1-1.6,4.2-3.6,5.5c-0.4,0.3-0.5,0.9-0.8,1.4
			c-7-2.9-14-5.7-21-8.6c-0.9-1.6-1.8-3.2-2.8-4.8c-0.3-1.5-0.6-2.9-0.8-4.4c1.5-2.9,2.9-5.6,6.3-7c4.7-2,5.6-7.6,2.3-10.5
			c0.7-3.6,2.2-7.2,1.8-10.7c-0.6-5.8-5-9.7-9.2-13.1c-2.2-1.8-5.4-2.2-8.1-3.3c-5.5-2.2-10.2-0.7-14.7,2.7
			c-1.8,1.3-3.2,4.1-6.2,3.4c-0.1,0-0.2,0.2-0.3,0.3c0.8,0.5,1.6,1,2.5,1.6c-1.3,1.1-2.7,1.9-3.2,3c-1.1,2.3-2.3,4.8-2.4,7.2
			c0,3,1.2,6,1.8,9c-0.7,0.7-1.8,1.4-2,2.2c-0.6,3.2,1.3,7.2,4.3,8.3c3.5,1.3,4.6,4.3,6.3,7c-0.3,1.8-0.5,3.6-0.8,5.3
			c-3.1,0.2-2.6,2.6-2.8,4.5c-4.6,1.9-9.2,3.8-13.8,5.6c-2.4,1-4.8,1.8-7.2,2.7c-1.3-2.4-3.7-3.9-5.6-2c-1.3,1.3-0.9,4.3-1.3,7.1
			c2.6,0,4.1,0,5.6,0c-0.7,5.6-1.5,11.2-2.2,16.8c-2.1,0-4.2,0-6.3,0c0-30.2,0-60.3,0-90.7c18.5,0,37,0,55.5,0
			c0.2,0.5,0.5,0.9,0.7,1.4c0,0.7,0,1.4,0,2.1c-0.1,0.6-0.2,1.2-0.3,1.7c0.6-0.1,1.2-0.2,1.7-0.3c0.7,0,1.4,0,2.1,0
			c0.5,0.5,1,1.4,1.6,1.5c1.9,0.2,3.4,0.7,4.5,2.6c0.4,0.6,2.7,0.8,3.7,0.3c0.8-0.4,1.6-2.2,1.3-3.1c-0.3-1-1.7-2.4-2.7-2.5
			c-2.7-0.1-3.9-1.5-4.8-3.7c9.1,0,18.3,0,27.4,0c0,11.7,0,23.4,0,35.2c-2.1,0.1-4.3-0.7-4.3,3C648.8,508,650.8,507.8,653.2,507.7z
			 M585.7,472.5c0.1-0.6,0.2-1.2,0.3-1.7c-0.6,0.1-1.2,0.2-1.7,0.3c-0.7,0-1.4,0-2.1,0c-1.3,0.4-3.4,0.6-3.8,1.4
			c-0.6,1.4-0.8,4.1,0.1,4.8c1.1,0.9,3.5,0.7,5.2,0.3c0.5-0.1,3.9-0.4,2.1-3.1C585.7,473.9,585.7,473.2,585.7,472.5z M634.2,477.7
			c0,4,0.8,4.5,4.6,4.7c2.9,0.2,3.1-1.3,3.2-3.6c0-3.3-1.5-4.2-4.5-4.3C634.9,474.5,633.7,475.3,634.2,477.7z M575.3,485.5
			c-1.8-1.7-2.8-2.8-3.9-3.9c-1.1,1.2-2.2,2.3-3.2,3.5c1.1,0.9,2.1,2.3,3.4,2.6C572.4,488,573.6,486.7,575.3,485.5z"/>
		<path class="st1" d="M621.6,525.9c7,2.9,14,5.7,21,8.6c0.2,0.7,0.5,1.4,0.7,2.1c0.1,0.4,0.1,0.9,0.2,1.3c0.9,6.3,1.8,12.7,2.7,19
			c-10.8,0-21.6,0-32.3,0c-0.4-4.2-1-8.5-1.3-12.7c-0.3-3.6-1.7-7.3,1.4-10.5c1.8,1.3,3.7,2.6,6.5,4.6
			C620.8,533.7,621.2,529.8,621.6,525.9z"/>
		<path class="st1" d="M572.3,535c2.4-0.9,4.8-1.8,7.2-2.7c4.6-1.9,9.2-3.8,13.8-5.6c0.5,3.5,1,7.1,1.5,10.6
			c0.2,0.6,0.3,1.3,0.5,1.9c0.2,0,0.4,0,0.6-0.1c0.1-0.6,0.2-1.2,0.3-1.8c1.4-1.2,2.9-2.4,4.3-3.6c0.9,2,2.5,4.1,2.4,6.1
			c-0.2,5.7-1.1,11.5-1.8,17.2c-10.8,0-21.6,0-32.3,0c0.7-5.6,1.5-11.2,2.2-16.8c-0.2-0.5-0.5-1-0.7-1.5c0.2-0.9,0.5-1.8,0.7-2.8
			C571.5,535.5,571.9,535.2,572.3,535z"/>
		<path class="st2" d="M601.2,556.9c0.6-5.7,1.6-11.4,1.8-17.2c0.1-2-1.6-4-2.4-6.1c1.4-1,2.8-1.9,4.1-2.9c1.2,0.2,2.3,0.5,3.5,0.7
			c2,0.5,4.8-0.8,5.7,2.3c-3.1,3.1-1.7,6.9-1.4,10.5c0.3,4.2,0.9,8.5,1.3,12.7C609.6,556.9,605.4,556.9,601.2,556.9z"/>
		<path class="st0" d="M643.3,536.6c-0.2-0.7-0.5-1.4-0.7-2.1c0.3-0.5,0.4-1.2,0.8-1.4c2-1.3,4.2-2.4,3.6-5.5c0-0.2,0.8-0.6,1.2-0.9
			c1.6,0.2,3.3,0.5,4.9,0.7c0,9.8,0,19.7,0,29.5c-2.3,0-4.7,0-7,0c-0.9-6.3-1.8-12.7-2.7-19c0.9,0,1.9,0.2,2.7-0.1
			c0.7-0.3,1.7-1.1,1.7-1.7c0.1-0.7-0.7-1.8-1.4-2c-0.6-0.2-1.6,0.3-2.3,0.7C643.8,535.1,643.6,535.9,643.3,536.6z"/>
		<path class="st0" d="M625.8,466.2c0.9,2.1,2.2,3.6,4.8,3.7c1,0,2.4,1.4,2.7,2.5c0.3,0.9-0.5,2.7-1.3,3.1c-1,0.5-3.3,0.4-3.7-0.3
			c-1.1-1.9-2.6-2.4-4.5-2.6c-0.6-0.1-1.1-1-1.6-1.5c0.2-1.6,0.5-3.3,0.7-4.9C623.9,466.2,624.8,466.2,625.8,466.2z"/>
		<path class="st0" d="M623,466.2c-0.2,1.6-0.5,3.3-0.7,4.9c-0.7,0-1.4,0-2.1,0c-0.5-0.5-0.9-0.9-1.4-1.4c0-0.7,0-1.4,0-2.1
			c0.2-0.5,0.5-0.9,0.7-1.4C620.6,466.2,621.8,466.2,623,466.2z"/>
		<path class="st0" d="M653.2,527.3c-1.6-0.2-3.3-0.5-4.9-0.7c0-0.7,0-1.4,0-2.1c0.5-0.5,0.9-0.9,1.4-1.4c0.7,0,1.4,0,2.1,0
			c0.5,0.2,0.9,0.5,1.4,0.7C653.2,525,653.2,526.2,653.2,527.3z"/>
		<path class="st0" d="M653.2,507.7c-2.4,0.1-4.4,0.3-4.3-3.3c0-3.7,2.3-2.9,4.3-3c0,0.5,0,0.9,0,1.4c-0.9,0.5-1.9,1.1-2.8,1.6
			c0.9,0.6,1.9,1.3,2.8,1.9C653.2,506.7,653.2,507.2,653.2,507.7z"/>
		<path class="st0" d="M653.2,506.3c-0.9-0.6-1.9-1.3-2.8-1.9c0.9-0.5,1.9-1.1,2.8-1.6C653.2,503.9,653.2,505.1,653.2,506.3z"/>
		<path class="st0" d="M619.5,466.2c-0.2,0.5-0.5,0.9-0.7,1.4c-0.2-0.5-0.5-0.9-0.7-1.4C618.5,466.2,619,466.2,619.5,466.2z"/>
		<path class="st0" d="M653.2,523.8c-0.5-0.2-0.9-0.5-1.4-0.7c0.5-0.2,0.9-0.5,1.4-0.7C653.2,522.9,653.2,523.4,653.2,523.8z"/>
		<path class="st3" d="M597,516.7c-1.6-2.7-2.8-5.7-6.3-7c-3-1.1-4.8-5.1-4.3-8.3c0.2-0.8,1.3-1.5,2-2.2c2.2,1.9,3.7,0.5,4.6-1.4
			c1.4-3.2,2.5-6.6,3.7-9.7c1.6,0.7,3.2,1.9,4.9,2c3.9,0.2,7.9,0.2,11.8-0.2c4.5-0.4,8,1.4,8.7,5.8c0.5,3,0.1,6.1,0.1,9.2
			c-0.4,0.3-0.7,0.6-1.1,1c0.3,0.3,0.6,0.6,0.9,0.9c0.3-0.4,0.6-0.8,0.9-1.2c1.2-2.1,2.4-4.2,3.5-6.3c3.4,2.9,2.4,8.4-2.3,10.5
			c-3.4,1.5-4.8,4.1-6.3,7c-1.3,0.7-2.7,1.4-3.8,2.2c-3.9,2.9-9.5,2.9-13.3,0C599.7,518.1,598.3,517.5,597,516.7z"/>
		<path class="st4" d="M626.5,499.2c-1.2,2.1-2.4,4.2-3.5,6.3c-0.2-0.2-0.5-0.5-0.7-0.7c0-3.1,0.4-6.2-0.1-9.2
			c-0.7-4.4-4.2-6.2-8.7-5.8c-3.9,0.4-7.9,0.4-11.8,0.2c-1.7-0.1-3.3-1.3-4.9-2c-1.2,3.1-2.3,6.5-3.7,9.7c-0.8,1.9-2.3,3.3-4.6,1.4
			c-0.7-3-1.8-6-1.8-9c0-2.4,1.3-4.9,2.4-7.2c0.5-1.1,1.9-1.8,3.2-3c-0.9-0.6-1.7-1.1-2.5-1.6c0.1-0.1,0.2-0.3,0.3-0.3
			c3,0.7,4.4-2,6.2-3.4c4.6-3.3,9.3-4.8,14.7-2.7c2.7,1.1,6,1.5,8.1,3.3c4.2,3.4,8.6,7.3,9.2,13.1
			C628.7,492,627.2,495.6,626.5,499.2z"/>
		<path class="st5" d="M597,516.7c1.3,0.8,2.7,1.4,3.8,2.3c3.8,2.9,9.4,2.8,13.3,0c1.2-0.9,2.6-1.5,3.8-2.2c0.3,1.5,0.6,2.9,0.8,4.4
			c-1.5,2-2.8,4.3-4.6,6.1c-1.7,1.7-4,2.9-6.1,4.3c-1.2-0.2-2.3-0.5-3.5-0.7c-0.8-0.7-1.6-1.3-2.3-2c-2.1-2.2-4.1-4.5-6.2-6.7
			C596.5,520.3,596.8,518.5,597,516.7z"/>
		<path class="st6" d="M608.2,531.5c2-1.4,4.3-2.6,6.1-4.3c1.8-1.8,3.1-4,4.6-6.1c0.9,1.6,1.8,3.2,2.8,4.8
			c-0.4,3.9-0.8,7.9-1.2,12.5c-2.8-2-4.6-3.3-6.5-4.6C612.9,530.6,610.2,531.9,608.2,531.5z"/>
		<path class="st6" d="M596.2,522c2.1,2.2,4.1,4.5,6.2,6.7c0.7,0.7,1.5,1.3,2.3,2c-1.4,1-2.8,1.9-4.1,2.9c-1.4,1.2-2.9,2.4-4.3,3.6
			c-0.5,0-0.9,0-1.4,0c-0.5-3.5-1-7.1-1.5-10.6C593.6,524.6,593.2,522.2,596.2,522z"/>
		<path class="st0" d="M634.2,477.7c-0.5-2.4,0.6-3.2,3.3-3.1c3,0,4.6,1,4.5,4.3c0,2.3-0.2,3.8-3.2,3.6
			C635,482.2,634.2,481.7,634.2,477.7z M637.4,474.8c-0.9,1.7-1.9,2.7-1.7,3.1c0.5,0.9,1.5,1.5,2.3,2.3c0.6-0.7,1.7-1.4,1.6-1.9
			C639.5,477.3,638.6,476.5,637.4,474.8z"/>
		<path class="st0" d="M572.3,535c-0.4,0.3-0.9,0.6-1.3,0.8c-1.2,0.2-2.3,0.4-3.5,0.7c0.9,0.7,1.8,1.4,2.8,2.1
			c0.2,0.5,0.5,1,0.7,1.5c-1.5,0-3,0-5.6,0c0.4-2.8,0-5.9,1.3-7.1C568.7,531.1,571.1,532.5,572.3,535z"/>
		<path class="st0" d="M575.3,485.5c-1.8,1.1-3,2.5-3.8,2.3c-1.3-0.3-2.3-1.7-3.4-2.6c1.1-1.2,2.2-2.3,3.2-3.5
			C572.5,482.7,573.6,483.8,575.3,485.5z"/>
		<path class="st0" d="M585.7,474.6c1.9,2.7-1.6,3-2.1,3.1c-1.7,0.4-4,0.6-5.2-0.3c-0.9-0.7-0.7-3.4-0.1-4.8c0.4-0.9,2.5-1,3.8-1.4
			c-0.8,1.6-2.6,4.2-2.2,4.7C582.1,478.1,583.9,475.5,585.7,474.6z"/>
		<path class="st0" d="M585.7,474.6c-1.9,0.9-3.6,3.5-5.7,1.2c-0.5-0.5,1.4-3.1,2.2-4.7c0.7,0,1.4,0,2.1,0c0.5,0.5,0.9,0.9,1.4,1.4
			C585.7,473.2,585.7,473.9,585.7,474.6z"/>
		<path class="st0" d="M618.8,469.7c0.5,0.5,0.9,0.9,1.4,1.4c-0.6,0.1-1.2,0.2-1.7,0.3C618.5,470.8,618.6,470.3,618.8,469.7z"/>
		<path class="st0" d="M585.7,472.5c-0.5-0.5-0.9-0.9-1.4-1.4c0.6-0.1,1.2-0.2,1.7-0.3C585.9,471.3,585.8,471.9,585.7,472.5z"/>
		<path class="st0" d="M649.7,523.1c-0.5,0.5-0.9,0.9-1.4,1.4c-0.1-0.6-0.2-1.2-0.3-1.7C648.5,522.9,649.1,523,649.7,523.1z"/>
		<path class="st0" d="M643.3,536.6c0.3-0.6,0.5-1.4,1-1.8c0.6-0.5,1.7-1,2.3-0.7c0.7,0.3,1.4,1.4,1.4,2c-0.1,0.6-1,1.4-1.7,1.7
			c-0.8,0.3-1.8,0.1-2.7,0.1C643.4,537.4,643.4,537,643.3,536.6z"/>
		<path class="st0" d="M570.3,538.6c-0.9-0.7-1.8-1.4-2.8-2.1c1.2-0.2,2.3-0.4,3.5-0.7C570.8,536.7,570.6,537.6,570.3,538.6z"/>
		<path class="st1" d="M594.8,537.2c0.5,0,0.9,0,1.4,0c-0.1,0.6-0.2,1.2-0.3,1.8c-0.2,0-0.4,0-0.6,0.1
			C595.2,538.4,595,537.8,594.8,537.2z"/>
		<path class="st3" d="M622.2,504.8c0.2,0.2,0.5,0.5,0.7,0.7c-0.3,0.4-0.6,0.8-0.9,1.2c-0.3-0.3-0.6-0.6-0.9-0.9
			C621.5,505.5,621.9,505.2,622.2,504.8z"/>
		<path class="st0" d="M637.4,474.8c1.2,1.7,2.1,2.5,2.3,3.5c0.1,0.5-1,1.3-1.6,1.9c-0.8-0.7-1.9-1.4-2.3-2.3
			C635.5,477.5,636.5,476.5,637.4,474.8z"/>
	</g>
</g>
</svg>
