<?xml version="1.0" encoding="utf-8"?>
<!-- Generator: Adobe Illustrator 22.0.1, SVG Export Plug-In . SVG Version: 6.00 Build 0)  -->
<svg version="1.1" id="Слой_1" xmlns="http://www.w3.org/2000/svg" xmlns:xlink="http://www.w3.org/1999/xlink" x="0px" y="0px"
	 viewBox="0 0 1280 1024" style="enable-background:new 0 0 1280 1024;" xml:space="preserve">
<style type="text/css">
	.st0{fill:#FEFEFE;}
	.st1{fill:#1B62FB;}
	.st2{fill:#417DFE;}
	.st3{fill:#BADCFE;}
	.st4{fill:#DFF3FE;}
</style>
<g>
	<g>
		<path class="st0" d="M572.3,579c-5,0-10,0-15,0c0-32.2,0-64.4,0-96.7c32.2,0,64.3,0,96.6,0c0,32.2,0,64.4,0,96.7
			c-4.6,0-9.4,0-14.1,0c0.3-1.3,0.7-2.6,0.7-3.9c0.1-4.2,0.1-8.4,0.1-12.6c1.8,0,3.7,0,5.7,0c0-14.6,0-28.9,0-43.5c-2,0-3.9,0-5.7,0
			c-0.2-4.6-0.5-9.1-0.7-13.7c-0.3-0.5-0.4-1.2-0.8-1.6c-6.5-6.5-13-13.1-19.6-19.6c-0.6-0.5-1.5-0.7-2.3-1c-14.1,0-28.2,0-42.3-0.1
			c-2.6,0-3.4,0.9-3.4,3.5c0.1,10.8,0,21.7,0,32.5c-1.8,0-3.7,0-5.7,0c0,14.6,0,28.9,0,43.5c2,0,3.9,0,5.7,0c0,1.9,0,3.7,0.1,5.6
			C571.7,571.7,572,575.4,572.3,579z"/>
		<path class="st1" d="M572.3,579c-0.3-3.6-0.5-7.3-0.7-10.9c-0.1-1.8-0.1-3.7-0.1-5.6c23,0,46.1,0,69.1,0c0,4.2,0,8.4-0.1,12.6
			c0,1.3-0.5,2.6-0.7,3.9C617.3,579,594.8,579,572.3,579z"/>
		<path class="st2" d="M640.6,562.5c-23,0-46.1,0-69.1,0c-1.8,0-3.7,0-5.7,0c0-14.6,0-28.9,0-43.5c2,0,3.9,0,5.7,0
			c23,0,46.1,0,69.1,0c1.8,0,3.7,0,5.7,0c0,14.6,0,28.9,0,43.5C644.3,562.5,642.4,562.5,640.6,562.5z M598.7,554.1
			c6.3,0.3,12.5,1,15.6-5.6c2.6-5.4,2.8-11.2-0.7-16.2c-3.7-5.2-9.3-4.7-14.9-4.1C598.7,536.9,598.7,545.4,598.7,554.1z
			 M582.1,546.2c1.3-0.1,2.2-0.1,3.2-0.2c5.1-0.8,7.7-3.7,8-8.1c0.5-5.9-2.9-9.1-7-9.7c-3.3-0.5-6.6-0.1-10.1-0.1
			c0,8.9,0,17.4,0,25.9c2,0,3.8,0,5.9,0C582.1,551.2,582.1,548.8,582.1,546.2z M622,528.1c0,8.9,0,17.4,0,26c2,0,3.7,0,5.8,0
			c0-2.5,0-4.8,0-7.1c2-0.2,3.5-0.3,5-0.5c0-2.3,0-4.2,0-6.3c-1.7-0.2-3.3-0.3-4.8-0.5c0-2,0-3.7,0-5.8c2.7,0,5.3,0,7.7,0
			c0-2.2,0-4,0-5.8C631,528.1,626.7,528.1,622,528.1z"/>
		<path class="st1" d="M640.6,519c-23,0-46.1,0-69.1,0c0-10.8,0.1-21.7,0-32.5c0-2.6,0.8-3.5,3.4-3.5c14.1,0.1,28.2,0.1,42.3,0.1
			c0,7.4,0,14.8,0,22.2c8,0,15.3,0,22.7,0C640.1,509.8,640.3,514.4,640.6,519z"/>
		<path class="st3" d="M639.8,505.3c-7.3,0-14.7,0-22.7,0c0-7.4,0-14.8,0-22.2c0.8,0.3,1.7,0.5,2.3,1c6.6,6.5,13.1,13,19.6,19.6
			C639.4,504.1,639.6,504.7,639.8,505.3z"/>
		<path class="st4" d="M598.7,554.1c0-8.8,0-17.2,0-25.9c5.6-0.6,11.2-1.1,14.9,4.1c3.5,5.1,3.3,10.9,0.7,16.2
			C611.2,555.1,605,554.4,598.7,554.1z M604.9,534.7c0,4.4,0,8.5,0,12.8c4.5-0.6,4.9-3.5,4.9-6.8
			C609.8,537.4,608.7,535.2,604.9,534.7z"/>
		<path class="st4" d="M582.1,546.2c0,2.6,0,5.1,0,7.8c-2.1,0-3.8,0-5.9,0c0-8.5,0-17.1,0-25.9c3.5,0,6.9-0.4,10.1,0.1
			c4.1,0.6,7.5,3.8,7,9.7c-0.4,4.4-2.9,7.3-8,8.1C584.3,546.1,583.3,546.1,582.1,546.2z M581.4,540.8c2.3-1.1,4.1-1.7,5.5-2.7
			c0.4-0.3,0.2-2.4-0.4-2.9c-1.3-1.1-3-1.7-5.1-2.8C581.4,535.7,581.4,537.6,581.4,540.8z"/>
		<path class="st4" d="M622,528.1c4.7,0,9,0,13.7,0c0,1.8,0,3.6,0,5.8c-2.5,0-5,0-7.7,0c0,2.1,0,3.8,0,5.8c1.5,0.2,3.1,0.3,4.8,0.5
			c0,2,0,4,0,6.3c-1.5,0.1-3,0.3-5,0.5c0,2.3,0,4.6,0,7.1c-2.1,0-3.8,0-5.8,0C622,545.5,622,537,622,528.1z"/>
		<path class="st2" d="M604.9,534.7c3.8,0.5,4.9,2.7,4.9,6c0,3.4-0.5,6.2-4.9,6.8C604.9,543.3,604.9,539.2,604.9,534.7z"/>
		<path class="st2" d="M581.4,540.8c0-3.3,0-5.2,0-8.3c2.1,1.1,3.8,1.7,5.1,2.8c0.6,0.5,0.8,2.6,0.4,2.9
			C585.5,539.2,583.7,539.8,581.4,540.8z"/>
	</g>
</g>
</svg>
