<?xml version="1.0" encoding="utf-8"?>
<!-- Generator: Adobe Illustrator 22.0.1, SVG Export Plug-In . SVG Version: 6.00 Build 0)  -->
<svg version="1.1" id="Слой_1" xmlns="http://www.w3.org/2000/svg" xmlns:xlink="http://www.w3.org/1999/xlink" x="0px" y="0px"
	 viewBox="0 0 1280 1024" style="enable-background:new 0 0 1280 1024;" xml:space="preserve">
<style type="text/css">
	.st0{fill:#FEFEFE;}
	.st1{fill:#1EF3FE;}
	.st2{fill:#00C0EF;}
	.st3{fill:#3B5757;}
	.st4{fill:#BADCFE;}
	.st5{fill:#1B62FB;}
	.st6{fill:#5C546A;}
	.st7{fill:#417DFE;}
</style>
<g>
	<g>
		<path class="st0" d="M558,579c-1.2,0-2.5,0-3.7,0c0-32.2,0-64.4,0-96.7c33.9,0,67.8,0,101.9,0c0,32.2,0,64.4,0,96.7
			c-2.6,0-5.4,0-8.1,0c0-4.9,0.2-9.7,0-14.6c-0.2-4.3-1.9-8-5.2-11c-0.6-0.5-1.2-1.3-1.9-1.5c-5.8-1.6-11.7-3-17.5-4.5
			c-1.8-1.8-3.5-3.5-5.3-5.3c1.2-2.1,2.7-4.2,3.7-6.4c3.5-7.5,4.1-15.5,3.7-23.6c0-1,0-1.9-0.1-2.9c0.1-1,0.2-2,0.2-3
			c3.5-1.3,7.1-2.5,10.6-3.7c2.3-0.8,4.4-1.5,4.3-4.6c0-2.9-2-3.6-4.2-4.4c-7.6-2.7-15-5.7-22.7-8.1c-4.1-1.3-8.6-2.1-12.9-2.2
			c-3-0.1-6.2,1.2-9.2,2.2c-8,2.6-16,5.3-23.8,8.3c-1.6,0.6-3.2,2.6-3.7,4.2c-0.9,2.8,1.6,3.9,3.7,4.6c4.1,1.4,8.3,2.6,12.5,3.8
			c0.1,1,0.2,2,0.3,3c0,1,0,1.9-0.1,2.9c-0.2,10.8,0.1,21.4,8.1,30c-2,1.8-4,3.7-6,5.5c-4.2,0.7-8.5,1.1-12.6,2.2
			c-2.5,0.7-4.7,2.4-7,3.6c-3.3,2.9-5,6.7-5.2,11C557.8,569.3,558,574.1,558,579z"/>
		<path class="st1" d="M623.3,547.4c5.9,1.5,11.7,2.9,17.5,4.5c0.7,0.2,1.3,1,1.9,1.5c-8.5,6.5-11.5,15.1-9.8,25.6
			c-8.3,0-16.5,0-24.8,0c0-5.2,0.1-10.5,0.1-15.7c2.4,1.9,4.8,2.3,6.7-0.4c2.7-3.7,5.2-7.5,7.6-11.5
			C623.4,550.4,623.1,548.8,623.3,547.4z"/>
		<path class="st1" d="M563.2,553.4c2.3-1.2,4.5-2.9,7-3.6c4.1-1.1,8.4-1.5,12.6-2.2c0.1,1.2-0.2,2.7,0.4,3.6
			c2.2,3.6,4.7,6.9,7,10.4c2.4,3.7,3.8,4,7.4,1.6c0,5.2,0.1,10.5,0.1,15.7c-8.3,0-16.5,0-24.8,0c-0.4-15.7,2.4-14-9.4-24.9
			C563.4,553.9,563.3,553.7,563.2,553.4z"/>
		<path class="st2" d="M563.2,553.4c0.1,0.2,0.2,0.5,0.4,0.6c11.8,10.9,9.1,9.2,9.4,24.9c-5,0-10,0-15,0c0-4.9-0.2-9.7,0-14.6
			C558.2,560.1,559.9,556.4,563.2,553.4z"/>
		<path class="st2" d="M633,579c-1.7-10.4,1.3-19,9.8-25.6c3.3,2.9,5,6.7,5.2,11c0.2,4.9,0,9.7,0,14.6C643,579,638,579,633,579z"/>
		<path class="st3" d="M597.8,579c0-5.2-0.1-10.5-0.1-15.7c0.9-2.9,1.5-6.2,5.6-6c3.7,0.1,4.4,3.2,5.2,6c0,5.2-0.1,10.5-0.1,15.7
			C604.8,579,601.3,579,597.8,579z"/>
		<path class="st4" d="M588.7,542.1c-8-8.6-8.4-19.2-8.1-30c15-4.2,29.9-4.1,44.9,0c0.4,8.1-0.1,16.1-3.7,23.6
			c-1,2.2-2.5,4.2-3.7,6.4c-3.7,2.3-7.1,5-11.1,6.6c-2.3,1-5.7,0.9-8.1-0.1C595.2,547.1,592.1,544.4,588.7,542.1z"/>
		<path class="st5" d="M580.4,506.3c-4.2-1.3-8.4-2.5-12.5-3.8c-2.1-0.7-4.6-1.8-3.7-4.6c0.5-1.7,2.1-3.6,3.7-4.2
			c7.8-3,15.8-5.7,23.8-8.3c3-1,6.1-2.3,9.2-2.2c4.3,0.1,8.7,1,12.9,2.2c7.7,2.4,15.1,5.4,22.7,8.1c2.1,0.8,4.1,1.5,4.2,4.4
			c0,3.1-2,3.9-4.3,4.6c-3.6,1.2-7.1,2.5-10.6,3.7c-0.1-0.5-0.1-1-0.2-1.5c0.7-6.2-1.3-7.3-6.8-9c-2-0.6-3.9-1.1-5.9-1.7
			c-6.5,0-12.9,0-19.4,0c-2,0.6-4,1.1-6,1.7c-5.6,1.5-6.8,3.1-6.8,9C580.5,505.3,580.4,505.8,580.4,506.3z"/>
		<path class="st2" d="M588.7,542.1c3.4,2.2,6.5,4.9,10.2,6.5c2.3,1,5.7,1,8.1,0.1c3.9-1.6,7.4-4.3,11.1-6.6
			c1.8,1.8,3.5,3.5,5.3,5.3c-0.2,1.3,0.1,2.9-0.6,4c-2.4,3.9-5,7.7-7.6,11.5c-2,2.8-4.4,2.3-6.7,0.4c-0.8-2.8-1.5-5.9-5.2-6
			c-4-0.2-4.6,3.1-5.6,6c-3.6,2.4-5,2-7.4-1.6c-2.3-3.5-4.8-6.9-7-10.4c-0.6-0.9-0.3-2.4-0.4-3.6C584.7,545.8,586.7,544,588.7,542.1
			z"/>
		<path class="st6" d="M580.4,506.3c0.1-0.5,0.1-1,0.2-1.5c6.7-1,13.3-2.4,20-3c8.4-0.8,16.8,0.2,24.9,3c0,0.5,0.1,1,0.2,1.5
			c-0.1,1-0.2,2-0.2,3c-1.9-0.7-3.8-2-5.8-2.2c-8.5-0.7-17-1.6-25.5-1.4c-4.5,0.1-8.9,2.3-13.4,3.5
			C580.5,508.3,580.5,507.3,580.4,506.3z"/>
		<path class="st7" d="M580.6,509.2c4.5-1.2,8.9-3.4,13.4-3.5c8.5-0.2,17,0.7,25.5,1.4c2,0.2,3.9,1.4,5.8,2.2c0,1,0,1.9,0.1,2.9
			c-15-4.1-29.9-4.2-44.9,0C580.6,511.2,580.6,510.2,580.6,509.2z"/>
		<path class="st7" d="M625.5,504.8c-8.1-2.7-16.4-3.7-24.9-3c-6.7,0.6-13.4,2-20,3c0-5.9,1.2-7.5,6.8-9c2-0.5,4-1.1,6-1.7
			c6.5,0,12.9,0,19.4,0c2,0.5,4,1,5.9,1.7C624.1,497.6,626.2,498.6,625.5,504.8z"/>
		<path class="st6" d="M612.7,494.2c-6.5,0-12.9,0-19.4,0C599.8,494.2,606.2,494.2,612.7,494.2z"/>
	</g>
</g>
</svg>
