<?xml version="1.0" encoding="utf-8"?>
<!-- Generator: Adobe Illustrator 22.0.1, SVG Export Plug-In . SVG Version: 6.00 Build 0)  -->
<svg version="1.1" id="Слой_1" xmlns="http://www.w3.org/2000/svg" xmlns:xlink="http://www.w3.org/1999/xlink" x="0px" y="0px"
	 viewBox="0 0 1280 1024" style="enable-background:new 0 0 1280 1024;" xml:space="preserve">
<style type="text/css">
	.st0{fill:#FEFEFE;}
	.st1{fill:#324A5E;}
	.st2{fill:#DFF3FE;}
	.st3{fill:#283D4C;}
	.st4{fill:#1B62FB;}
	.st5{fill:#417DFE;}
	.st6{fill:#BADCFE;}
</style>
<g>
	<g>
		<path class="st0" d="M576,556c-5.2,0-10.5,0-15.7,0c0-32.2,0-64.4,0-96.7c32.2,0,64.3,0,96.6,0c0,32.2,0,64.4,0,96.7
			c-4.9,0-9.9,0-14.9,0c0.5-1.6,1.3-3.1,1.4-4.7c0.2-2.6-0.1-5.2,0.1-7.8c0.8-12.5-9.8-19.7-21-20.4c-1.9-0.7-3.8-1.4-6.1-2.2
			c0-2.2,0-4.5,0-6.9c1,0,2,0.1,2.9,0.1c2.3,0.7,4.7,1.2,6.8,2.3c2.9,1.5,4.5,0.1,5.9-2c1.2-1.9,2.4-4,3.1-6.1
			c4.5-13.5,3.6-26.5-5.4-37.9c-10.7-13.6-30.7-14.5-41.9,0.2c-6,7.9-8.4,16.7-7.6,26.6c0.5,6.2,2.1,12,5.5,17.1
			c0.9,1.3,3,2.6,4.4,2.5c2.8-0.3,5.4-1.7,8.2-2.7c0.7,0.2,1.5,0.4,2.2,0.6c0,2.2,0,4.3,0,6.1c-1.8,0.7-3.5,1.5-5.3,2.2
			c-3.2,0.7-6.5,1-9.4,2.3c-4.5,2-8.1,4.9-10.2,9.9c-2.3,5.4-0.8,10.7-1.2,16.1C574.5,552.8,575.5,554.4,576,556z"/>
		<path class="st1" d="M622.6,523.1c11.2,0.7,21.8,8,21,20.4c-0.2,2.6,0.2,5.2-0.1,7.8c-0.1,1.6-0.9,3.1-1.4,4.7c-3.3,0-6.5,0-9.8,0
			c0-4.1,0.1-8.2-0.1-12.3c0-0.8-0.8-1.6-1.2-2.4c-0.6,0.8-1.6,1.6-1.6,2.4c-0.2,4.1-0.1,8.2-0.1,12.3c-5.3,0-10.5,0-15.8,0
			c0.2-0.8,0.3-1.7,0.5-2.5c2.1-7.7,4.2-15.3,6.3-23C621.1,528,621.8,525.6,622.6,523.1z"/>
		<path class="st1" d="M604.5,556c-5.3,0-10.5,0-15.8,0c0-4,0.1-8-0.1-12c0-1-1-1.9-1.6-2.9c-0.7,1-1.9,1.9-2,2.9
			c-0.2,4-0.1,8-0.1,12c-2.3,0-4.5,0-6.8,0c0-3.7,0-7.5,0-11.2c0-10.8,6.4-18.3,17.1-20.3c0.8,2,1.5,4,2.3,6
			c0.2,0.8,0.4,1.6,0.6,2.5C600.3,540.7,602.4,548.3,604.5,556z"/>
		<path class="st2" d="M604.5,556c-2.1-7.7-4.2-15.3-6.2-23c-0.2-0.8-0.4-1.6-0.6-2.5c4.6,0.5,9.1,1.3,13.7,1.4
			c3,0.1,5.9-0.9,8.9-1.4c-2.1,7.7-4.2,15.3-6.3,23c-0.2,0.8-0.3,1.6-0.5,2.5C610.5,556,607.5,556,604.5,556z"/>
		<path class="st3" d="M595.4,524.5c-10.8,2-17.1,9.5-17.1,20.3c0,3.7,0,7.5,0,11.2c-0.8,0-1.5,0-2.3,0c-0.5-1.6-1.5-3.2-1.4-4.7
			c0.4-5.3-1.1-10.7,1.2-16.1c2.1-5,5.7-7.9,10.2-9.9c2.9-1.3,6.3-1.6,9.4-2.3C595.4,523.5,595.4,524,595.4,524.5z"/>
		<path class="st3" d="M585,556c0-4-0.1-8,0.1-12c0.1-1,1.3-1.9,2-2.9c0.6,1,1.6,1.9,1.6,2.9c0.2,4,0.1,8,0.1,12
			C587.5,556,586.3,556,585,556z"/>
		<path class="st3" d="M629.3,556c0-4.1-0.1-8.2,0.1-12.3c0-0.8,1-1.6,1.6-2.4c0.4,0.8,1.2,1.6,1.2,2.4c0.1,4.1,0.1,8.2,0.1,12.3
			C631.3,556,630.3,556,629.3,556z"/>
		<path class="st4" d="M598.6,514.1c-2.7,1-5.4,2.3-8.2,2.7c-1.4,0.2-3.6-1.2-4.4-2.5c-3.4-5.1-5.1-10.9-5.5-17.1
			c-0.8-9.9,1.6-18.8,7.6-26.6c11.2-14.7,31.2-13.8,41.9-0.2c9,11.4,9.9,24.4,5.4,37.9c-0.7,2.2-1.9,4.2-3.1,6.1
			c-1.3,2.1-3,3.5-5.9,2c-2.1-1.1-4.5-1.5-6.8-2.3c2.3-3.4,4.5-6.8,6.8-10.1c0.5-0.7,1.4-1.2,2.3-1.6c3.3-1.7,5.1-4.7,4.2-7.9
			c-0.6-2.3-3-4.5-5.2-5.8c-5.1-3.1-10.6-5.7-16-8.3c-1.4-0.6-3.5-0.8-4.8-0.2c-5.8,2.8-11.3,6.1-17.1,9c-2.9,1.4-3.9,3.4-3.9,6.5
			c0,3.1,0.8,5.3,3.9,6.5c1.1,0.4,2.2,1.1,2.8,2C594.6,507.3,596.5,510.7,598.6,514.1z"/>
		<path class="st5" d="M598.6,514.1c-2-3.4-4-6.8-6.1-10c-0.6-0.9-1.8-1.6-2.8-2c-3.1-1.2-3.9-3.4-3.9-6.5c0-3.1,1-5,3.9-6.5
			c5.8-2.8,11.3-6.1,17.1-9c1.3-0.6,3.5-0.5,4.8,0.2c5.4,2.5,10.9,5.2,16,8.3c2.2,1.3,4.6,3.6,5.2,5.8c0.9,3.2-1,6.2-4.2,7.9
			c-0.8,0.4-1.7,0.9-2.3,1.6c-2.3,3.3-4.6,6.7-6.8,10.1c-1,0-2-0.1-2.9-0.1c-0.4,0-0.9-0.1-1.1,0.1c-4.1,3.6-8.2,4-12.5,0.3
			c-0.3-0.3-1.4,0.2-2.1,0.4C600,514.5,599.3,514.3,598.6,514.1z"/>
		<path class="st6" d="M600.7,514.7c0.7-0.2,1.8-0.7,2.1-0.4c4.3,3.7,8.4,3.3,12.5-0.3c0.2-0.2,0.8-0.1,1.1-0.1c0,2.3,0,4.6,0,6.9
			c2.2,0.8,4.1,1.5,6.1,2.2c-0.7,2.5-1.5,5-2.2,7.5c-3,0.5-6,1.5-8.9,1.4c-4.6-0.1-9.1-0.9-13.7-1.4c-0.8-2-1.5-4-2.3-6
			c0-0.5,0.1-1,0.1-1.4c1.7-0.7,3.5-1.5,5.3-2.2C600.7,519,600.7,516.9,600.7,514.7z"/>
	</g>
</g>
</svg>
